<?xml version="1.0" encoding="UTF-8" standalone="no"?>
<!-- Generator: Adobe Illustrator 19.0.0, SVG Export Plug-In . SVG Version: 6.00 Build 0)  -->

<svg
   xmlns:dc="http://purl.org/dc/elements/1.1/"
   xmlns:cc="http://creativecommons.org/ns#"
   xmlns:rdf="http://www.w3.org/1999/02/22-rdf-syntax-ns#"
   xmlns:svg="http://www.w3.org/2000/svg"
   xmlns="http://www.w3.org/2000/svg"
   xmlns:sodipodi="http://sodipodi.sourceforge.net/DTD/sodipodi-0.dtd"
   xmlns:inkscape="http://www.inkscape.org/namespaces/inkscape"
   version="1.1"
   id="Capa_1"
   x="0px"
   y="0px"
   viewBox="0 0 499.99999 499.99999"
   xml:space="preserve"
   sodipodi:docname="service_tour.svg"
   inkscape:version="0.92.3 (unknown)"
   width="500"
   height="500"><metadata
   id="metadata47"><rdf:RDF><cc:Work
       rdf:about=""><dc:format>image/svg+xml</dc:format><dc:type
         rdf:resource="http://purl.org/dc/dcmitype/StillImage" /><dc:title /></cc:Work></rdf:RDF></metadata><defs
   id="defs45">
</defs><sodipodi:namedview
   pagecolor="#ffffff"
   bordercolor="#666666"
   borderopacity="1"
   objecttolerance="10"
   gridtolerance="10"
   guidetolerance="10"
   inkscape:pageopacity="0"
   inkscape:pageshadow="2"
   inkscape:window-width="1920"
   inkscape:window-height="1141"
   id="namedview43"
   showgrid="false"
   inkscape:zoom="0.83106175"
   inkscape:cx="-139.73874"
   inkscape:cy="224.10569"
   inkscape:window-x="0"
   inkscape:window-y="27"
   inkscape:window-maximized="1"
   inkscape:current-layer="Capa_1"
   inkscape:pagecheckerboard="false" /><g
   id="g12"
   transform="translate(0,98.399994)" /><g
   id="g14"
   transform="translate(0,98.399994)" /><g
   id="g16"
   transform="translate(0,98.399994)" /><g
   id="g18"
   transform="translate(0,98.399994)" /><g
   id="g20"
   transform="translate(0,98.399994)" /><g
   id="g22"
   transform="translate(0,98.399994)" /><g
   id="g24"
   transform="translate(0,98.399994)" /><g
   id="g26"
   transform="translate(0,98.399994)" /><g
   id="g28"
   transform="translate(0,98.399994)" /><g
   id="g30"
   transform="translate(0,98.399994)" /><g
   id="g32"
   transform="translate(0,98.399994)" /><g
   id="g34"
   transform="translate(0,98.399994)" /><g
   id="g36"
   transform="translate(0,98.399994)" /><g
   id="g38"
   transform="translate(0,98.399994)" /><g
   id="g40"
   transform="translate(0,98.399994)" />


<g
   transform="translate(1605.3938,-200.6485)"
   id="g5064"><g
     style="stroke:#ffffff;stroke-width:5.20888376;stroke-miterlimit:4;stroke-dasharray:none;stroke-opacity:0.86324786"
     transform="matrix(0.95997549,0,0,0.95982164,-595.10612,349.54825)"
     id="g4999"><g
       id="g4997"
       transform="matrix(0.99601594,0,0,0.99601594,-991.98654,-130.44007)"
       style="stroke:#ffffff;stroke-width:5.22971916;stroke-miterlimit:4;stroke-dasharray:none;stroke-opacity:0.86324786"><path
         style="fill:#ff6a1a;fill-opacity:1;stroke:#ffffff;stroke-width:5.22971916;stroke-miterlimit:4;stroke-dasharray:none;stroke-opacity:0.86324786"
         d="m 228.8,120.122 c -2.4,-4 -7.2,-4.8 -11.2,-2.4 -0.8,0.8 -1.6,1.6 -2.4,2.4 l -28,40.8 -14.4,-20.8 c -1.6,-2.4 -4,-3.2 -6.4,-3.2 v 0 c -2.4,0 -4.8,1.6 -6.4,3.2 l -40,57.6 c -2.4,4 -1.6,8.8 1.6,11.2 4,2.4 8.8,1.6 11.2,-1.6 v 0 l 32.8,-48 11.2,16 -16,22.4 c -2.4,4 -1.6,8.8 1.6,11.2 4,2.4 8.8,1.6 11.2,-1.6 v 0 l 47.2,-68 47.2,68 c 2.4,4 7.2,4.8 11.2,2.4 4,-2.4 4.8,-7.2 2.4,-11.2 v 0 z"
         id="path4991"
         inkscape:connector-curvature="0" /><circle
         style="fill:#ff6a1a;fill-opacity:1;stroke:#ffffff;stroke-width:5.22971916;stroke-miterlimit:4;stroke-dasharray:none;stroke-opacity:0.86324786"
         cx="156.8"
         cy="111.322"
         r="16"
         id="circle4993" /><path
         style="fill:#ff6a1a;fill-opacity:1;stroke:#ffffff;stroke-width:5.22971916;stroke-miterlimit:4;stroke-dasharray:none;stroke-opacity:0.86324786"
         d="m 339.2,199.322 c -0.8,-12 -0.8,-24.8 -0.8,-38.4 0,-34.4 2.4,-68.8 8.8,-103.2 0.8,-3.2 -0.8,-7.2 -4,-8.8 h -0.8 c 0,0 -0.8,0 -1.6,-0.8 v 0 c -0.8,0 -2.4,-0.8 -3.2,0 -44,12 -90.4,17.6 -136,16.8 -45.6,0.8 -91.2,-4.8 -136,-16.8 h -0.8 c -0.8,0 -1.6,0 -3.2,0 v 0 0 c -0.8,0 -1.6,0.8 -2.4,0.8 l -0.8,0.8 c -0.8,0.8 -2.4,2.4 -3.2,4 0,0 0,0 0,0.8 0,0.8 0,0.8 0,1.6 0,0.8 0,0.8 0,1.6 0,0 0,0 0,0.8 5.6,33.6 8.8,68.8 8,103.2 0,12.8 0,25.6 -0.8,37.6 -40,13.6 -62.4,32.8 -62.4,54.4 0,44.8 91.2,70.4 183.2,73.6 l -11.2,13.6 c -2.4,3.2 -2.4,8.8 0.8,11.2 3.2,2.4 8,2.4 11.2,-0.8 l 22.4,-26.4 c 0,0 0,-0.8 0.8,-0.8 l 0.8,-0.8 v -0.8 l 0.8,-0.8 c 0,0 0,-0.8 0,-1.6 v 0 0 c 0,0 0,-0.8 0,-1.6 0,-0.8 0,-0.8 0,-1.6 v -0.8 l -0.8,-0.8 c 0,0 0,-0.8 -0.8,-0.8 l -22.4,-25.6 c -2.4,-3.2 -8,-4 -11.2,-0.8 -3.2,3.2 -4,8 -0.8,11.2 v 0 l 11.2,12.8 c -99.2,-3.2 -167.2,-32.8 -167.2,-57.6 0,-12.8 16.8,-26.4 44.8,-36.8 -1.6,16 -3.2,32 -6.4,48 v 0 c 0,0.8 0,0.8 0,1.6 0,0.8 0,0.8 0,1.6 0,0 0,0 0,0.8 0,0 0,0.8 0.8,0.8 0,0 0,0.8 0.8,0.8 0.8,0.8 0.8,0.8 1.6,1.6 l 0.8,0.8 c 0.8,0 1.6,0.8 2.4,0.8 h 0.8 1.6 0.8 c 0.8,0 0.8,0 1.6,0 44,-12 89.6,-18.4 135.2,-17.6 45.6,-0.8 92,4.8 136,16.8 0.8,0 1.6,0 2.4,0 h 0.8 1.6 v 0 h 0.8 c 4,-1.6 5.6,-4.8 4.8,-8.8 -3.2,-16 -4.8,-32 -6.4,-48 28,10.4 44.8,24 44.8,36.8 0,20 -42.4,44.8 -122.4,54.4 -4.8,0 -8,4 -7.2,8.8 0,4.8 4,8 8.8,7.2 h -0.8 c 66.4,-8 136.8,-30.4 136.8,-70.4 0,-21.6 -22.4,-40.8 -62.4,-54.4 z m -138.4,41.6 c -43.2,-0.8 -86.4,4 -128,14.4 2.4,-15.2 4,-32 5.6,-48.8 v 0 c 0.8,-14.4 1.6,-29.6 1.6,-44 0,-31.2 -2.4,-62.4 -7.2,-93.6 41.6,9.6 84.8,14.4 128,14.4 43.2,0.8 86.4,-4 128,-14.4 -4.8,31.2 -6.4,62.4 -6.4,93.6 0,31.2 1.6,62.4 6.4,93.6 -41.6,-11.2 -84.8,-16 -128,-15.2 z"
         id="path4995"
         inkscape:connector-curvature="0" /></g></g><text
     transform="scale(0.93305316,1.0717503)"
     id="text5003"
     y="590.92609"
     x="-1658.5632"
     style="font-style:normal;font-variant:normal;font-weight:600;font-stretch:normal;font-size:42.8706665px;line-height:1.25;font-family:Raleway;-inkscape-font-specification:'Raleway, Semi-Bold';font-variant-ligatures:normal;font-variant-caps:normal;font-variant-numeric:normal;font-feature-settings:normal;text-align:start;letter-spacing:0px;word-spacing:0px;writing-mode:lr-tb;text-anchor:start;fill:#ff6a1a;fill-opacity:1;stroke:none;stroke-width:1"
     xml:space="preserve"><tspan
       style="font-style:normal;font-variant:normal;font-weight:600;font-stretch:normal;font-size:42.8706665px;font-family:Raleway;-inkscape-font-specification:'Raleway, Semi-Bold';font-variant-ligatures:normal;font-variant-caps:normal;font-variant-numeric:normal;font-feature-settings:normal;text-align:start;writing-mode:lr-tb;text-anchor:start;fill:#ff6a1a;fill-opacity:1;stroke-width:1"
       y="590.92609"
       x="-1658.5632"
       id="tspan5001"
       sodipodi:role="line">Recorridos Virtuales</tspan></text>
</g></svg>