<?xml version="1.0" encoding="UTF-8" standalone="no"?>
<!-- Generator: Adobe Illustrator 19.0.0, SVG Export Plug-In . SVG Version: 6.00 Build 0)  -->

<svg
   xmlns:dc="http://purl.org/dc/elements/1.1/"
   xmlns:cc="http://creativecommons.org/ns#"
   xmlns:rdf="http://www.w3.org/1999/02/22-rdf-syntax-ns#"
   xmlns:svg="http://www.w3.org/2000/svg"
   xmlns="http://www.w3.org/2000/svg"
   xmlns:sodipodi="http://sodipodi.sourceforge.net/DTD/sodipodi-0.dtd"
   xmlns:inkscape="http://www.inkscape.org/namespaces/inkscape"
   version="1.1"
   id="Capa_1"
   x="0px"
   y="0px"
   viewBox="0 0 499.99999 499.99999"
   xml:space="preserve"
   sodipodi:docname="service_smm.svg"
   inkscape:version="0.92.3 (unknown)"
   width="500"
   height="500"><metadata
   id="metadata47"><rdf:RDF><cc:Work
       rdf:about=""><dc:format>image/svg+xml</dc:format><dc:type
         rdf:resource="http://purl.org/dc/dcmitype/StillImage" /><dc:title /></cc:Work></rdf:RDF></metadata><defs
   id="defs45" /><sodipodi:namedview
   pagecolor="#ffffff"
   bordercolor="#666666"
   borderopacity="1"
   objecttolerance="10"
   gridtolerance="10"
   guidetolerance="10"
   inkscape:pageopacity="0"
   inkscape:pageshadow="2"
   inkscape:window-width="1920"
   inkscape:window-height="1141"
   id="namedview43"
   showgrid="false"
   inkscape:zoom="0.58764939"
   inkscape:cx="229.02671"
   inkscape:cy="152.20383"
   inkscape:window-x="0"
   inkscape:window-y="27"
   inkscape:window-maximized="1"
   inkscape:current-layer="Capa_1"
   inkscape:pagecheckerboard="false" /><g
   id="g12"
   transform="translate(0,98.399994)" /><g
   id="g14"
   transform="translate(0,98.399994)" /><g
   id="g16"
   transform="translate(0,98.399994)" /><g
   id="g18"
   transform="translate(0,98.399994)" /><g
   id="g20"
   transform="translate(0,98.399994)" /><g
   id="g22"
   transform="translate(0,98.399994)" /><g
   id="g24"
   transform="translate(0,98.399994)" /><g
   id="g26"
   transform="translate(0,98.399994)" /><g
   id="g28"
   transform="translate(0,98.399994)" /><g
   id="g30"
   transform="translate(0,98.399994)" /><g
   id="g32"
   transform="translate(0,98.399994)" /><g
   id="g34"
   transform="translate(0,98.399994)" /><g
   id="g36"
   transform="translate(0,98.399994)" /><g
   id="g38"
   transform="translate(0,98.399994)" /><g
   id="g40"
   transform="translate(0,98.399994)" />

<g
   transform="translate(1114.1138,-380.12702)"
   id="g4897"><path
     style="fill:#ff6a1a;fill-opacity:1;stroke:#f8ffff;stroke-width:10;stroke-miterlimit:4;stroke-dasharray:none;stroke-opacity:1"
     inkscape:connector-curvature="0"
     d="m -717.42783,594.73068 -75.38993,-140.81555 c -7.79337,-14.55769 -25.97059,-20.04542 -40.51864,-12.23109 -13.07738,7.02384 -18.57151,22.0984 -14.46142,35.28747 l -0.37765,0.7078 c -19.56495,36.65555 -49.24212,66.41681 -85.8248,86.06627 l -64.54107,34.66754 c -14.58226,7.83324 -20.06216,25.98007 -12.24776,40.57402 l 18.84688,35.20285 c 7.81204,14.59255 25.93575,20.06413 40.51864,12.23109 l 8.79469,-4.72397 32.98279,61.60623 c 7.81248,14.59338 25.93493,20.06458 40.518,12.2309 14.54787,-7.81369 20.04226,-26.01531 12.24761,-40.57338 l -14.13542,-26.40256 8.79469,-4.72397 c 14.58187,-7.83195 20.06117,-25.97898 12.24761,-40.57338 l -3.20184,-5.98148 c 27.35412,-9.01303 56.32004,-12.29282 85.35617,-9.51147 l 0.8077,0.0775 c 8.89748,10.93231 24.54324,14.3296 37.33634,7.45793 l 6.4e-4,1.8e-4 c 14.54575,-7.81362 20.03996,-26.0146 12.24677,-40.57293 z m -243.41921,74.08898 c -4.85994,2.60992 -10.90271,0.78653 -13.50645,-4.0778 L -993.20042,629.539 c -2.60418,-4.86516 -0.77842,-10.91344 4.08254,-13.52446 l 61.5605,-33.06709 28.27083,52.80511 c -6.02292,3.23514 -55.38893,29.75157 -61.56049,33.0671 z m 86.37757,55.58786 c 2.59771,4.85208 0.76618,10.91949 -4.08253,13.52446 -4.84853,2.60433 -10.9083,0.77511 -13.50601,-4.07696 l -32.98279,-61.60624 17.58918,-9.4473 z m -15.39361,-71.05353 c 3.73882,-2.00827 9.36566,-5.11456 17.89934,-8.86798 l 4.40115,8.22161 c 2.60437,4.86452 0.77862,10.91281 -4.08254,13.52446 l -8.79468,4.72397 z m 8.44793,-26.51959 -28.83783,-53.86416 c 29.8805,-18.9247 54.86815,-44.36848 73.2686,-74.65018 l 58.18934,108.68779 c -35.36355,-1.40349 -70.34814,5.36671 -102.62011,19.82655 z m 142.31472,-9.13362 c -4.86076,2.61038 -10.90143,0.78693 -13.506,-4.07696 l -75.38905,-140.8139 c -2.60417,-4.86516 -0.77842,-10.91344 4.08254,-13.52446 4.86096,-2.61101 10.90227,-0.78736 13.50664,4.07716 l 75.3886,140.81307 c 2.59752,4.85271 0.76618,10.91949 -4.08273,13.52509 z"
     id="path4821" /><g
     transform="translate(-566.66442,541.139)"
     id="g4829"><text
       transform="scale(0.93305316,1.0717503)"
       id="text4827"
       y="266.39694"
       x="-473.88583"
       style="font-style:normal;font-variant:normal;font-weight:600;font-stretch:normal;font-size:42.8706665px;line-height:1.25;font-family:Raleway;-inkscape-font-specification:'Raleway, Semi-Bold';font-variant-ligatures:normal;font-variant-caps:normal;font-variant-numeric:normal;font-feature-settings:normal;text-align:start;letter-spacing:0px;word-spacing:0px;writing-mode:lr-tb;text-anchor:start;fill:#ff6a1a;fill-opacity:1;stroke:none;stroke-width:1"
       xml:space="preserve"><tspan
         style="font-style:normal;font-variant:normal;font-weight:600;font-stretch:normal;font-size:42.8706665px;font-family:Raleway;-inkscape-font-specification:'Raleway, Semi-Bold';font-variant-ligatures:normal;font-variant-caps:normal;font-variant-numeric:normal;font-feature-settings:normal;text-align:start;writing-mode:lr-tb;text-anchor:start;fill:#ff6a1a;fill-opacity:1;stroke-width:1"
         y="266.39694"
         x="-473.88583"
         id="tspan4825"
         sodipodi:role="line">Redes Sociales</tspan></text>
</g></g></svg>