<?xml version="1.0" encoding="UTF-8" standalone="no"?>
<!-- Created with Inkscape (http://www.inkscape.org/) -->

<svg
   xmlns:dc="http://purl.org/dc/elements/1.1/"
   xmlns:cc="http://creativecommons.org/ns#"
   xmlns:rdf="http://www.w3.org/1999/02/22-rdf-syntax-ns#"
   xmlns:svg="http://www.w3.org/2000/svg"
   xmlns="http://www.w3.org/2000/svg"
   xmlns:sodipodi="http://sodipodi.sourceforge.net/DTD/sodipodi-0.dtd"
   xmlns:inkscape="http://www.inkscape.org/namespaces/inkscape"
   width="10.20804mm"
   height="4.2661233mm"
   viewBox="0 0 10.20804 4.2661233"
   version="1.1"
   id="svg5158"
   inkscape:version="0.92.2 (unknown)"
   sodipodi:docname="brand.svg">
  <defs
     id="defs5152" />
  <sodipodi:namedview
     id="base"
     pagecolor="#ffffff"
     bordercolor="#666666"
     borderopacity="1.0"
     inkscape:pageopacity="0.0"
     inkscape:pageshadow="2"
     inkscape:zoom="2.8"
     inkscape:cx="31.416308"
     inkscape:cy="58.297451"
     inkscape:document-units="mm"
     inkscape:current-layer="layer1"
     showgrid="false"
     fit-margin-top="0"
     fit-margin-left="0"
     fit-margin-right="0"
     fit-margin-bottom="0"
     inkscape:showpageshadow="false"
     showborder="false"
     inkscape:window-width="1920"
     inkscape:window-height="1141"
     inkscape:window-x="0"
     inkscape:window-y="27"
     inkscape:window-maximized="1" />
  <metadata
     id="metadata5155">
    <rdf:RDF>
      <cc:Work
         rdf:about="">
        <dc:format>image/svg+xml</dc:format>
        <dc:type
           rdf:resource="http://purl.org/dc/dcmitype/StillImage" />
        <dc:title></dc:title>
      </cc:Work>
    </rdf:RDF>
  </metadata>
  <g
     inkscape:label="Layer 1"
     inkscape:groupmode="layer"
     id="layer1"
     transform="translate(-106.44461,-157.02883)">
    <g
       id="g1314"
       transform="matrix(0.04815312,0,0,0.04815312,95.614617,112.64516)">
      <path
         inkscape:connector-curvature="0"
         id="path1300"
         style="font-style:normal;font-variant:normal;font-weight:normal;font-stretch:normal;font-size:117.56684113px;line-height:1.25;font-family:'League Gothic';-inkscape-font-specification:'League Gothic, Normal';font-variant-ligatures:normal;font-variant-caps:normal;font-variant-numeric:normal;font-feature-settings:normal;text-align:start;letter-spacing:0px;word-spacing:0px;writing-mode:lr-tb;text-anchor:start;fill:#000000;fill-opacity:1;stroke:none;stroke-width:0.38337019"
         d="m 299.52854,922.66319 h 29.03901 v 13.0499 h -16.3418 v 22.6904 h 11.7567 v 13.8729 h -11.7567 v 23.7485 h 16.3418 v 13.04991 h -29.03901 z"
         inkscape:export-xdpi="96"
         inkscape:export-ydpi="96" />
      <g
         id="g1306"
         transform="matrix(0.94764566,0,0,0.94764566,188.53944,524.71992)"
         inkscape:export-xdpi="96"
         inkscape:export-ydpi="96">
        <path
           d="m 223.64685,492.39475 c 0,2.10552 -0.24767,7.05988 -2.60095,11.39486 -2.3533,4.45882 -6.81216,8.29844 -14.86279,8.29844 -8.29846,0 -12.50959,-3.83962 -14.86289,-8.29844 -2.35329,-4.33498 -2.60097,-9.28934 -2.60097,-11.39486 v -51.77234 c 0,-3.09643 0.12383,-8.67001 2.47713,-13.25272 2.35329,-4.45886 6.56444,-8.29844 14.98673,-8.29844 8.42222,0 12.63334,3.83958 14.98664,8.29844 2.35327,4.58271 2.4771,10.15629 2.4771,13.25272 v 5.69744 h -13.37646 c 0,-6.06902 -0.12393,-10.03245 -0.61928,-12.38572 -0.49544,-2.3533 -1.48632,-3.22029 -3.468,-3.22029 -1.61017,0 -2.7249,0.74314 -3.22034,2.35328 -0.61929,1.61015 -0.86697,4.08729 -0.86697,7.55529 v 16.22529 c 2.3533,-1.36242 4.33498,-2.22942 6.68825,-2.22942 6.936,0 10.65168,3.59186 12.63337,7.67915 1.98176,4.08726 2.22943,9.04153 2.22943,11.51874 z m -21.55105,3.96338 c 0,1.11472 0.99088,4.0873 4.08731,4.0873 2.84871,0 4.08728,-2.97258 4.08728,-4.0873 v -27.24855 c 0,-1.11472 -1.23857,-4.08729 -4.08728,-4.08729 -2.84874,0 -3.96346,2.35328 -4.08731,3.71569 z"
           style="font-style:normal;font-variant:normal;font-weight:normal;font-stretch:normal;font-size:152.32072449px;line-height:1.25;font-family:'League Gothic';-inkscape-font-specification:'League Gothic, Normal';font-variant-ligatures:normal;font-variant-caps:normal;font-variant-numeric:normal;font-feature-settings:normal;text-align:start;letter-spacing:0px;word-spacing:0px;writing-mode:lr-tb;text-anchor:start;fill:#ff5900;fill-opacity:1;stroke:none;stroke-width:0.40388232"
           id="path1302"
           inkscape:connector-curvature="0" />
        <path
           d="m 262.08029,492.72878 c -0.12384,3.71569 -0.86704,7.05987 -2.22944,9.90854 -1.11474,2.47721 -2.84874,4.83041 -5.32589,6.68835 -2.47711,1.98168 -5.82121,3.09641 -10.28011,3.09641 -4.45885,0 -7.92686,-1.11473 -10.40401,-3.09641 -2.47716,-1.85794 -4.08734,-4.21114 -5.20205,-6.68835 -1.36241,-2.84867 -2.10562,-6.19285 -2.22946,-9.90854 v -53.63021 c 0.12384,-3.59186 0.86705,-6.93599 2.22946,-9.7847 1.11471,-2.47716 2.72489,-4.95429 5.20205,-6.81216 2.47715,-1.85786 5.94516,-3.09643 10.40401,-3.09643 4.4589,0 7.803,1.23857 10.28011,3.09643 2.47715,1.85787 4.21115,4.335 5.32589,6.81216 1.3624,2.84871 2.1056,6.19284 2.22944,9.7847 z m -13.37654,-53.63021 c 0,-2.47714 -0.49545,-4.21114 -1.734,-5.69742 -0.61929,-0.61928 -1.61019,-0.99085 -2.7249,-0.99085 -2.35331,0 -3.46803,1.734 -3.96348,3.34413 -0.37151,0.99086 -0.49537,2.10557 -0.49537,3.34414 v 53.63021 c 0,2.60097 0.61929,4.33498 1.85786,5.69738 0.61929,0.61928 1.48625,0.99089 2.60099,0.99089 2.35327,0 3.46802,-1.48624 3.96345,-3.34418 0.37152,-0.86697 0.49545,-1.98168 0.49545,-3.34409 z"
           style="font-style:normal;font-variant:normal;font-weight:normal;font-stretch:normal;font-size:152.32072449px;line-height:1.25;font-family:'League Gothic';-inkscape-font-specification:'League Gothic, Normal';font-variant-ligatures:normal;font-variant-caps:normal;font-variant-numeric:normal;font-feature-settings:normal;text-align:start;letter-spacing:0px;word-spacing:0px;writing-mode:lr-tb;text-anchor:start;fill:#ff5900;fill-opacity:1;stroke:none;stroke-width:0.40388232"
           id="path1304"
           inkscape:connector-curvature="0" />
      </g>
      <path
         inkscape:connector-curvature="0"
         id="path1308"
         style="font-style:normal;font-variant:normal;font-weight:normal;font-stretch:normal;font-size:117.56684113px;line-height:1.25;font-family:'League Gothic';-inkscape-font-specification:'League Gothic, Normal';font-variant-ligatures:normal;font-variant-caps:normal;font-variant-numeric:normal;font-feature-settings:normal;text-align:start;letter-spacing:0px;word-spacing:0px;writing-mode:lr-tb;text-anchor:start;fill:#000000;fill-opacity:1;stroke:none;stroke-width:0.38337019"
         d="m 352.91935,945.82389 c 0,-2.8217 -0.1176,-5.996 -0.9405,-8.4649 -0.823,-2.3513 -2.1162,-3.9972 -4.1149,-3.9972 -3.2918,0.1175 -4.3499,3.527 -4.3499,8.5823 0,2.9392 1.2932,5.996 3.1743,9.2878 1.881,3.2919 4.3499,6.7013 6.8188,10.3459 2.9392,4.35 5.8784,8.8175 8.1122,13.1675 2.2337,4.35 3.7621,8.8175 3.7621,13.5202 0,5.7608 -0.9405,11.1688 -3.6446,15.16611 -2.704,3.9973 -7.054,6.5838 -13.9904,6.5838 -8.1121,0 -12.6973,-3.0568 -15.2837,-7.7595 -2.5865,-4.70261 -3.1743,-10.93371 -3.1743,-17.39981 l 12.4621,-1.1757 c 0,3.6445 0.1175,7.2891 1.0581,9.9932 0.8229,2.8216 2.2337,4.7026 4.9378,4.7026 3.7621,0 5.1729,-3.9972 5.1729,-9.5229 0,-2.8216 -1.4108,-6.1134 -3.2919,-9.5229 -1.0581,-1.6459 -2.1162,-3.4094 -3.2918,-5.1729 -2.4689,-3.527 -5.173,-7.5243 -7.9946,-11.8743 -2.8216,-4.35 -4.9378,-8.8175 -6.231,-13.4026 -0.7054,-2.2338 -1.0581,-4.5851 -1.0581,-6.9365 0,-4.7026 1.0581,-9.758 3.7621,-13.6377 2.7041,-3.7621 6.8189,-6.4662 12.8148,-6.5837 7.6418,-0.1176 12.1094,3.0567 14.5783,7.6418 2.4689,4.7027 3.1743,10.4634 3.1743,15.2837 z"
         inkscape:export-xdpi="96"
         inkscape:export-ydpi="96" />
      <path
         inkscape:connector-curvature="0"
         id="path1310"
         style="font-style:normal;font-variant:normal;font-weight:normal;font-stretch:normal;font-size:117.56684113px;line-height:1.25;font-family:'League Gothic';-inkscape-font-specification:'League Gothic, Normal';font-variant-ligatures:normal;font-variant-caps:normal;font-variant-numeric:normal;font-feature-settings:normal;text-align:start;letter-spacing:0px;word-spacing:0px;writing-mode:lr-tb;text-anchor:start;fill:#000000;fill-opacity:1;stroke:none;stroke-width:0.38337019"
         d="m 285.55994,1009.0748 -6.58379,-36.44571 h -3.4094 v 36.44571 h -12.6972 v -86.41161 h 12.6972 c 15.1661,0 21.63229,8.5824 21.63229,24.9242 0,8.5823 -2.23379,16.3418 -7.05399,19.6336 l 8.1121,41.85381 z m -9.99319,-48.20241 c 1.7635,0 4.1148,-0.2351 5.9959,-1.8811 1.8811,-1.6459 3.4094,-4.8202 3.4094,-10.9337 0,-6.1135 -1.5283,-9.4053 -3.4094,-11.0513 -1.8811,-1.6459 -4.2324,-1.7635 -5.9959,-1.7635 z"
         inkscape:export-xdpi="96"
         inkscape:export-ydpi="96" />
      <path
         inkscape:connector-curvature="0"
         id="path1312"
         style="font-style:normal;font-variant:normal;font-weight:normal;font-stretch:normal;font-size:117.56684113px;line-height:1.25;font-family:'League Gothic';-inkscape-font-specification:'League Gothic, Normal';font-variant-ligatures:normal;font-variant-caps:normal;font-variant-numeric:normal;font-feature-settings:normal;text-align:start;letter-spacing:0px;word-spacing:0px;writing-mode:lr-tb;text-anchor:start;fill:#000000;fill-opacity:1;stroke:none;stroke-width:0.38337019"
         d="m 224.90744,935.71309 v -13.0499 h 36.6809 v 13.0499 h -11.9918 v 73.36171 h -12.6972 v -73.36171 z"
         inkscape:export-xdpi="96"
         inkscape:export-ydpi="96" />
    </g>
  </g>
</svg>
