<?xml version="1.0" encoding="UTF-8" standalone="no"?>
<!-- Created with Inkscape (http://www.inkscape.org/) -->

<svg
   xmlns:dc="http://purl.org/dc/elements/1.1/"
   xmlns:cc="http://creativecommons.org/ns#"
   xmlns:rdf="http://www.w3.org/1999/02/22-rdf-syntax-ns#"
   xmlns:svg="http://www.w3.org/2000/svg"
   xmlns="http://www.w3.org/2000/svg"
   xmlns:sodipodi="http://sodipodi.sourceforge.net/DTD/sodipodi-0.dtd"
   xmlns:inkscape="http://www.inkscape.org/namespaces/inkscape"
   width="33.552643mm"
   height="19.615952mm"
   viewBox="0 0 33.552643 19.615952"
   version="1.1"
   id="svg5301"
   inkscape:version="0.92.2 (unknown)"
   sodipodi:docname="TC.svg">
  <defs
     id="defs5295" />
  <sodipodi:namedview
     id="base"
     pagecolor="#ffffff"
     bordercolor="#666666"
     borderopacity="1.0"
     inkscape:pageopacity="0.0"
     inkscape:pageshadow="2"
     inkscape:zoom="0.98994949"
     inkscape:cx="-61.729977"
     inkscape:cy="-116.99816"
     inkscape:document-units="mm"
     inkscape:current-layer="layer1"
     showgrid="false"
     fit-margin-top="0"
     fit-margin-left="0"
     fit-margin-right="0"
     fit-margin-bottom="0"
     inkscape:showpageshadow="false"
     showborder="false"
     inkscape:window-width="1920"
     inkscape:window-height="1141"
     inkscape:window-x="0"
     inkscape:window-y="27"
     inkscape:window-maximized="1" />
  <metadata
     id="metadata5298">
    <rdf:RDF>
      <cc:Work
         rdf:about="">
        <dc:format>image/svg+xml</dc:format>
        <dc:type
           rdf:resource="http://purl.org/dc/dcmitype/StillImage" />
        <dc:title />
      </cc:Work>
    </rdf:RDF>
  </metadata>
  <g
     inkscape:label="Layer 1"
     inkscape:groupmode="layer"
     id="layer1"
     transform="translate(140.55864,-112.78477)">
    <g
       transform="matrix(0.50862928,0,0,0.50862928,-157.00266,93.913775)"
       id="g5998"
       style="fill:#444444;fill-opacity:1">
      <path
         inkscape:connector-curvature="0"
         id="path5606"
         d="m 67.069224,57.022184 c -0.24081,-0.266089 -0.265515,-1.182935 -0.265515,-9.854852 0,-8.478337 0.0285,-9.590024 0.252105,-9.813569 0.22545,-0.225445 1.778505,-0.252099 14.68968,-0.252099 9.645405,0 14.540599,0.05513 14.747909,0.166072 0.30153,0.161375 0.31031,0.440031 0.31031,9.854847 0,8.594076 -0.0285,9.71726 -0.25211,9.940877 -0.22545,0.225459 -1.782584,0.252103 -14.734499,0.252103 -13.82655,0 -14.49441,-0.01335 -14.74788,-0.293379 z m 10.830165,-2.02431 c 1.18161,-0.250443 2.529645,-0.841145 3.250905,-1.424532 l 0.469575,-0.379817 -0.36018,-0.505826 -0.36018,-0.505823 h 0.82398 0.823995 l -0.36018,0.505823 -0.36018,0.505826 0.469575,0.380071 c 1.301835,1.0537 3.750525,1.763365 5.44284,1.577408 5.751975,-0.632056 8.994304,-6.546394 6.39783,-11.670282 -0.573135,-1.131029 -2.12118,-2.705943 -3.252435,-3.308895 -1.079385,-0.575303 -2.64297,-0.979858 -3.78711,-0.979858 -1.641645,0 -3.72366,0.720393 -4.870185,1.685121 l -0.50415,0.424219 -0.50415,-0.424219 c -0.736755,-0.619937 -1.91682,-1.177928 -3.062295,-1.447998 -4.911615,-1.158012 -9.749055,2.660077 -9.749055,7.694719 0,2.285 0.737805,4.035 2.404275,5.70269 1.159995,1.160856 2.36532,1.827813 3.91047,2.163845 1.28805,0.280116 1.88388,0.281526 3.176655,0.0075 z m 2.26917,-3.812973 c -0.46416,-0.59895 -0.442635,-0.607305 1.56504,-0.607305 h 1.95417 l -0.23916,0.360963 c -0.214035,0.32304 -0.39051,0.365773 -1.6797,0.406765 -1.029525,0.03275 -1.486125,-0.01305 -1.60035,-0.160423 z m -11.11779,-2.09126 c 4.5e-4,-0.110295 0.14445,-1.030749 0.319785,-2.045455 0.175305,-1.014705 0.319215,-1.862967 0.3198,-1.885026 4.5e-4,-0.02205 0.28983,-0.04011 0.642765,-0.04011 h 0.641715 l 0.012,1.163101 0.012,1.163097 0.401775,-1.163097 0.40176,-1.163101 h 0.698475 0.698475 l -0.08565,0.521391 c -0.585195,3.562648 -0.586215,3.5661 -1.077495,3.622231 -0.442095,0.05051 -0.45738,0.03037 -0.365265,-0.481287 0.0528,-0.293695 0.13665,-0.858861 0.186315,-1.255921 0.0834,-0.667892 0.0558,-0.631871 -0.36858,0.481285 -0.691005,1.812294 -1.11054,1.611168 -1.17126,-0.561501 -0.015,-0.520344 -0.06315,-0.406564 -0.25713,0.601607 -0.21939,1.140409 -0.271155,1.243315 -0.62553,1.243315 -0.212505,0 -0.385875,-0.09024 -0.38529,-0.200533 z m 4.12995,0.02724 c -0.39318,-0.229 -0.370515,-1.180815 0.0378,-1.589167 0.17523,-0.17523 0.609435,-0.365105 0.96489,-0.421945 0.5406,-0.08645 0.61479,-0.141285 0.45372,-0.335375 -0.1344,-0.161969 -0.35685,-0.201206 -0.736665,-0.129959 -0.500085,0.09383 -0.539835,0.07211 -0.491565,-0.268488 0.04605,-0.32454 0.15474,-0.376501 0.87558,-0.418384 1.18353,-0.06878 1.396215,0.187882 1.25424,1.513559 l -0.10935,1.020896 h 0.65094 c 0.739875,0 0.98982,-0.22419 0.52644,-0.472182 -0.842025,-0.450636 -1.091175,-1.317465 -0.525765,-1.829155 0.357165,-0.323228 1.793535,-0.375371 1.789725,-0.06497 -0.0045,0.353907 -0.279,0.651046 -0.51729,0.559607 -0.1272,-0.04881 -0.333015,-0.02369 -0.457365,0.05583 -0.179265,0.114629 -0.11805,0.230266 0.295305,0.558281 1.02102,0.810142 0.51777,1.994727 -0.847425,1.994727 -0.60408,0 -0.751635,-0.06107 -0.872175,-0.360962 l -0.14505,-0.360963 -0.0105,0.360963 c -0.0075,0.275363 -0.1053,0.360962 -0.41124,0.360962 -0.22059,0 -0.40107,-0.08663 -0.40107,-0.192512 0,-0.14973 -0.04275,-0.14973 -0.19251,0 -0.23301,0.233004 -0.748935,0.241781 -1.131015,0.01923 z m 1.31832,-0.939979 c 0.108,-0.201872 0.11115,-0.345306 0.009,-0.408485 -0.22716,-0.1404 -0.80589,0.207618 -0.80589,0.48461 0,0.344373 0.6027,0.286801 0.796935,-0.07612 z m 3.424635,0.852876 c -0.10785,-0.281036 0.19656,-3.180186 0.362025,-3.447909 0.15108,-0.244447 0.870945,-0.16289 0.870945,0.09867 0,0.132345 0.07215,0.240642 0.16044,0.240642 0.0882,0 0.160425,0.18048 0.160425,0.401068 0,0.24726 -0.09105,0.401072 -0.237585,0.401072 -0.13065,0 -0.275055,0.180478 -0.320865,0.401067 -0.04575,0.220588 -0.1197,0.577731 -0.1644,0.79365 -0.0534,0.258228 0.0075,0.441999 0.17691,0.536988 0.1419,0.07943 0.23199,0.28178 0.200145,0.449667 -0.0804,0.423696 -1.05474,0.524583 -1.20804,0.125085 z m 1.976535,-0.07212 c -0.363615,-0.286023 -0.4227,-0.453851 -0.4227,-1.200678 0,-0.727373 0.07395,-0.950981 0.45618,-1.37873 0.88095,-0.985956 2.110665,-0.536757 2.110665,0.770999 v 0.697059 h -0.89412 c -0.765615,0 -0.886185,0.04034 -0.838905,0.280747 0.0432,0.220038 0.21933,0.280748 0.814155,0.280748 0.57867,0 0.758895,0.05907 0.7587,0.248665 -4.5e-4,0.685986 -1.253085,0.87611 -1.983975,0.30119 z m 1.342005,-1.984236 c 0,-0.303719 -0.22971,-0.435443 -0.54702,-0.313682 -0.406815,0.156113 -0.302685,0.544857 0.14595,0.544857 0.24225,0 0.40107,-0.09155 0.40107,-0.231175 z m 0.850995,1.968415 c 0.0495,-0.205486 0.179535,-0.969195 0.288975,-1.697136 0.18363,-1.221565 0.227715,-1.323526 0.57228,-1.323526 0.20532,0 0.373305,0.08662 0.373305,0.192513 0,0.149729 0.04275,0.149729 0.19251,0 0.1059,-0.105885 0.279615,-0.192513 0.386055,-0.192513 0.27618,0 0.08535,0.669151 -0.274605,0.962565 -0.17571,0.14325 -0.37809,0.662636 -0.500085,1.28342 -0.19119,0.972826 -0.23592,1.04632 -0.66669,1.095529 -0.411765,0.04704 -0.451995,0.0123 -0.371745,-0.320852 z m 2.638305,0.179156 c -0.75366,-0.450009 -0.95559,-1.715213 -0.451095,-2.82635 0.398835,-0.878433 0.9186,-1.208863 1.801635,-1.145365 0.62808,0.04515 0.699885,0.09332 0.746595,0.500586 0.0498,0.434733 0.0318,0.446884 -0.512505,0.344778 -0.471435,-0.08844 -0.63156,-0.03843 -0.97413,0.304122 -0.828645,0.828642 -0.364455,2.373675 0.637575,2.122182 0.383595,-0.09627 0.41445,-0.06757 0.367425,0.341949 -0.04575,0.398098 -0.12165,0.451354 -0.693045,0.486388 -0.352935,0.02164 -0.768045,-0.0361 -0.922455,-0.128295 z m 2.245995,-0.004 c -0.39318,-0.229001 -0.370515,-1.180814 0.0378,-1.589166 0.17523,-0.175232 0.60942,-0.365106 0.96489,-0.421946 0.5406,-0.08644 0.61479,-0.141285 0.45372,-0.335374 -0.1344,-0.16197 -0.35685,-0.201206 -0.736665,-0.12996 -0.5001,0.09383 -0.53985,0.07211 -0.491565,-0.268488 0.04605,-0.32454 0.15474,-0.376502 0.87558,-0.418385 0.970845,-0.05642 1.33617,0.208202 1.355385,0.981746 0.015,0.576589 0.07575,0.462483 0.222105,-0.412532 0.0843,-0.504469 0.164205,-0.6016 0.494415,-0.6016 0.2166,0 0.39381,0.08662 0.39381,0.192511 0,0.14973 0.04275,0.14973 0.19251,0 0.1059,-0.105885 0.25809,-0.192511 0.33825,-0.192511 0.226575,0 -0.02325,0.775917 -0.35745,1.110103 -0.164895,0.164895 -0.34881,0.614262 -0.408705,0.998595 -0.176625,1.133297 -0.24177,1.260282 -0.64662,1.260282 -0.26559,0 -0.399915,-0.108075 -0.44862,-0.360961 l -0.06945,-0.360963 -0.02175,0.360963 c -0.0165,0.272248 -0.12045,0.360961 -0.422925,0.360961 -0.22059,0 -0.40107,-0.08662 -0.40107,-0.192511 0,-0.14973 -0.04275,-0.14973 -0.19251,0 -0.23301,0.233004 -0.74892,0.24178 -1.131015,0.01923 z m 1.31832,-0.93998 c 0.108,-0.201871 0.11115,-0.345306 0.009,-0.408484 -0.227145,-0.1404 -0.805875,0.207618 -0.805875,0.484609 0,0.344373 0.602685,0.286802 0.79692,-0.07613 z m 1.078365,-0.450909 c -0.04035,-0.154413 -0.07335,-0.02806 -0.07335,0.280748 0,0.30882 0.033,0.43516 0.07335,0.280749 0.04035,-0.154413 0.04035,-0.40709 0,-0.561497 z m 1.90623,1.255995 c -0.412395,-0.455697 -0.48087,-1.231324 -0.17859,-2.022855 0.151395,-0.39642 0.408615,-0.792129 0.571605,-0.879357 0.39624,-0.212061 1.07415,-0.201442 1.21038,0.01896 0.14745,0.238529 0.384765,-0.139935 0.38802,-0.618732 0.0015,-0.295345 0.09195,-0.360963 0.49455,-0.360963 0.392595,0 0.47571,0.05678 0.41103,0.280748 -0.04455,0.154413 -0.197325,1.03327 -0.339435,1.953018 -0.14205,0.919749 -0.288015,1.720242 -0.324255,1.778878 -0.0363,0.05863 -0.497685,0.11067 -1.025445,0.11565 -0.709995,0.0068 -1.024125,-0.06231 -1.20786,-0.265341 z m 1.49715,-0.999226 c 0.297405,-0.527358 0.12135,-1.259442 -0.30282,-1.259442 -0.554565,0 -0.8811,1.142878 -0.44979,1.574197 0.259755,0.259743 0.480735,0.167321 0.75261,-0.314755 z m 1.13844,0.986542 c 0,-0.08823 0.1083,-0.160423 0.24063,-0.160423 0.1323,0 0.240645,0.0722 0.240645,0.160423 0,0.08823 -0.1083,0.16043 -0.240645,0.16043 -0.1323,0 -0.24063,-0.0722 -0.24063,-0.16043 z M 79.669269,44.236032 c 0.18459,-0.405119 0.188025,-0.40571 2.104125,-0.360962 1.824255,0.04262 1.92582,0.06269 2.052495,0.405783 l 0.1332,0.360963 h -2.237385 -2.237385 z m 1.026195,-1.759991 c 0.219,-0.334237 0.389235,-0.401069 1.02162,-0.401069 0.69891,0 1.289835,0.318152 1.289835,0.694449 0,0.05923 -0.57921,0.107685 -1.28712,0.107685 h -1.28712 z m 13.7259,9.144385 c 0,-0.08382 -0.07755,-0.178277 -0.17247,-0.209893 -0.0948,-0.0316 -0.172455,0.06283 -0.172455,0.209893 0,0.147061 0.07755,0.241509 0.172455,0.209893 0.0948,-0.0316 0.17247,-0.126075 0.17247,-0.209893 z"
         style="fill:#444444;fill-opacity:1;stroke-width:0.16042778" />
      <g
         id="g5966"
         style="fill:#444444;fill-opacity:1">
        <g
           id="g5897"
           style="fill:#444444;fill-opacity:1">
          <path
             inkscape:connector-curvature="0"
             id="path5616"
             d="m 40.539062,59.251953 c -4.528528,0 -8.208984,3.678503 -8.208984,8.207031 0,4.528529 3.680456,8.208985 8.208984,8.208985 4.528529,0 8.207032,-3.680456 8.207032,-8.208985 0,-4.528528 -3.678503,-8.207031 -8.207032,-8.207031 z m 0,0.798828 c 4.096177,0 7.408204,3.312027 7.408204,7.408203 0,4.096176 -3.312027,7.408204 -7.408204,7.408204 -4.096176,0 -7.408203,-3.312028 -7.408203,-7.408204 0,-4.096176 3.312027,-7.408203 7.408203,-7.408203 z"
             style="color:#000000;font-style:normal;font-variant:normal;font-weight:normal;font-stretch:normal;font-size:medium;line-height:normal;font-family:sans-serif;font-variant-ligatures:normal;font-variant-position:normal;font-variant-caps:normal;font-variant-numeric:normal;font-variant-alternates:normal;font-feature-settings:normal;text-indent:0;text-align:start;text-decoration:none;text-decoration-line:none;text-decoration-style:solid;text-decoration-color:#000000;letter-spacing:normal;word-spacing:normal;text-transform:none;writing-mode:lr-tb;direction:ltr;text-orientation:mixed;dominant-baseline:auto;baseline-shift:baseline;text-anchor:start;white-space:normal;shape-padding:0;clip-rule:nonzero;display:inline;overflow:visible;visibility:visible;opacity:1;isolation:auto;mix-blend-mode:normal;color-interpolation:sRGB;color-interpolation-filters:linearRGB;solid-color:#000000;solid-opacity:1;vector-effect:none;fill:#444444;fill-opacity:1;fill-rule:nonzero;stroke:none;stroke-width:0.80000001;stroke-linecap:butt;stroke-linejoin:miter;stroke-miterlimit:4;stroke-dasharray:none;stroke-dashoffset:0;stroke-opacity:1;color-rendering:auto;image-rendering:auto;shape-rendering:auto;text-rendering:auto;enable-background:accumulate" />
          <g
             transform="translate(1.7273296,-52.59061)"
             id="text5614-2-2-3"
             style="font-style:normal;font-variant:normal;font-weight:bold;font-stretch:normal;font-size:14.11111069px;line-height:1.25;font-family:'Droid Sans';-inkscape-font-specification:'Droid Sans, Bold';font-variant-ligatures:normal;font-variant-caps:normal;font-variant-numeric:normal;font-feature-settings:normal;text-align:start;letter-spacing:0px;word-spacing:0px;writing-mode:lr-tb;text-anchor:start;fill:#444444;fill-opacity:1;stroke:none;stroke-width:0.26458332"
             aria-label="3">
            <path
               inkscape:connector-curvature="0"
               id="path5790"
               style="font-style:normal;font-variant:normal;font-weight:bold;font-stretch:normal;font-size:14.11111069px;font-family:'Droid Sans';-inkscape-font-specification:'Droid Sans, Bold';font-variant-ligatures:normal;font-variant-caps:normal;font-variant-numeric:normal;font-feature-settings:normal;text-align:start;writing-mode:lr-tb;text-anchor:start;fill:#444444;fill-opacity:1;stroke-width:0.26458332"
               d="m 41.93255,117.26992 q 0,0.52365 -0.172254,0.94396 -0.165365,0.41341 -0.461643,0.73036 -0.289388,0.31005 -0.689019,0.52365 -0.392741,0.20671 -0.854384,0.31695 v 0.0413 q 1.219564,0.15158 1.846571,0.74414 0.627008,0.58567 0.627008,1.58474 0,0.66146 -0.241157,1.22646 -0.234267,0.5581 -0.73036,0.97152 -0.489204,0.41341 -1.240235,0.64767 -0.74414,0.22738 -1.756998,0.22738 -0.813043,0 -1.529623,-0.1378 -0.716579,-0.13092 -1.336697,-0.40653 v -1.81212 q 0.310059,0.16537 0.654569,0.28939 0.344509,0.12403 0.689019,0.2136 0.344509,0.0827 0.675238,0.12402 0.33762,0.0413 0.633898,0.0413 0.592556,0 0.985297,-0.11024 0.392741,-0.11024 0.627007,-0.31006 0.234267,-0.19981 0.33073,-0.47542 0.103352,-0.2825 0.103352,-0.61323 0,-0.31006 -0.130913,-0.5581 -0.124024,-0.25494 -0.413412,-0.4272 -0.282497,-0.17914 -0.74414,-0.2756 -0.461643,-0.0965 -1.136882,-0.0965 h -0.716579 v -1.49517 h 0.702799 q 0.633898,0 1.054199,-0.11024 0.420302,-0.11713 0.668349,-0.31006 0.254937,-0.19981 0.35829,-0.46164 0.103352,-0.26183 0.103352,-0.55811 0,-0.53743 -0.337619,-0.8406 -0.330729,-0.30317 -1.054199,-0.30317 -0.330729,0 -0.620117,0.0689 -0.282498,0.062 -0.530545,0.16537 -0.241157,0.0965 -0.447862,0.22048 -0.199816,0.11714 -0.36518,0.23427 l -1.07487,-1.41938 q 0.289388,-0.2136 0.627007,-0.39274 0.34451,-0.17915 0.744141,-0.31006 0.399631,-0.1378 0.861274,-0.21359 0.461642,-0.0758 0.985297,-0.0758 0.74414,0 1.350477,0.16537 0.613227,0.15847 1.047309,0.46853 0.434082,0.30317 0.668349,0.75103 0.241156,0.44097 0.241156,1.01286 z" />
          </g>
        </g>
        <g
           id="g5892"
           style="fill:#444444;fill-opacity:1">
          <path
             inkscape:connector-curvature="0"
             id="path5616-1"
             d="m 56.947266,59.251953 c -4.528529,0 -8.208985,3.678503 -8.208985,8.207031 0,4.528529 3.680456,8.208985 8.208985,8.208985 4.528528,0 8.208984,-3.680456 8.208984,-8.208985 0,-4.528528 -3.680456,-8.207031 -8.208984,-8.207031 z m 0,0.798828 c 4.096176,0 7.408203,3.312027 7.408203,7.408203 0,4.096177 -3.312027,7.408204 -7.408203,7.408204 -4.096177,0 -7.408203,-3.312027 -7.408204,-7.408204 0,-4.096176 3.312027,-7.408203 7.408204,-7.408203 z"
             style="color:#000000;font-style:normal;font-variant:normal;font-weight:normal;font-stretch:normal;font-size:medium;line-height:normal;font-family:sans-serif;font-variant-ligatures:normal;font-variant-position:normal;font-variant-caps:normal;font-variant-numeric:normal;font-variant-alternates:normal;font-feature-settings:normal;text-indent:0;text-align:start;text-decoration:none;text-decoration-line:none;text-decoration-style:solid;text-decoration-color:#000000;letter-spacing:normal;word-spacing:normal;text-transform:none;writing-mode:lr-tb;direction:ltr;text-orientation:mixed;dominant-baseline:auto;baseline-shift:baseline;text-anchor:start;white-space:normal;shape-padding:0;clip-rule:nonzero;display:inline;overflow:visible;visibility:visible;opacity:1;isolation:auto;mix-blend-mode:normal;color-interpolation:sRGB;color-interpolation-filters:linearRGB;solid-color:#000000;solid-opacity:1;vector-effect:none;fill:#444444;fill-opacity:1;fill-rule:nonzero;stroke:none;stroke-width:0.80000001;stroke-linecap:butt;stroke-linejoin:miter;stroke-miterlimit:4;stroke-dasharray:none;stroke-dashoffset:0;stroke-opacity:1;color-rendering:auto;image-rendering:auto;shape-rendering:auto;text-rendering:auto;enable-background:accumulate" />
          <g
             transform="translate(2.2030682,-52.816675)"
             id="text5614-2-2-3-5"
             style="font-style:normal;font-variant:normal;font-weight:bold;font-stretch:normal;font-size:14.11111069px;line-height:1.25;font-family:'Droid Sans';-inkscape-font-specification:'Droid Sans, Bold';font-variant-ligatures:normal;font-variant-caps:normal;font-variant-numeric:normal;font-feature-settings:normal;text-align:start;letter-spacing:0px;word-spacing:0px;writing-mode:lr-tb;text-anchor:start;fill:#444444;fill-opacity:1;stroke:none;stroke-width:0.26458332"
             aria-label="6">
            <path
               inkscape:connector-curvature="0"
               id="path5787"
               style="font-style:normal;font-variant:normal;font-weight:bold;font-stretch:normal;font-size:14.11111069px;font-family:'Droid Sans';-inkscape-font-specification:'Droid Sans, Bold';font-variant-ligatures:normal;font-variant-caps:normal;font-variant-numeric:normal;font-feature-settings:normal;text-align:start;writing-mode:lr-tb;text-anchor:start;fill:#444444;fill-opacity:1;stroke-width:0.26458332"
               d="m 51.330249,121.02362 q 0,-0.72347 0.07579,-1.44005 0.08268,-0.71658 0.282498,-1.37115 0.206706,-0.66146 0.551216,-1.22645 0.351399,-0.565 0.881944,-0.97841 0.537435,-0.4203 1.281575,-0.65457 0.751031,-0.24115 1.750109,-0.24115 0.144694,0 0.316949,0.007 0.172254,0.007 0.344509,0.0207 0.179145,0.007 0.34451,0.0276 0.165364,0.0207 0.296278,0.0482 v 1.70188 q -0.261827,-0.062 -0.558106,-0.0965 -0.289388,-0.0413 -0.585666,-0.0413 -0.930175,0 -1.529622,0.23427 -0.599447,0.22738 -0.950846,0.64079 -0.3514,0.41341 -0.502984,0.99218 -0.144694,0.57878 -0.179145,1.28158 h 0.08268 q 0.137804,-0.24805 0.330729,-0.46164 0.199816,-0.22049 0.461643,-0.37207 0.261827,-0.15848 0.585666,-0.24805 0.330729,-0.0896 0.737251,-0.0896 0.654568,0 1.178222,0.21359 0.523655,0.2136 0.881945,0.62012 0.36518,0.40652 0.558105,0.99908 0.192925,0.59256 0.192925,1.35737 0,0.81993 -0.234266,1.46761 -0.227376,0.64767 -0.654568,1.10243 -0.427192,0.44786 -1.033529,0.68902 -0.606337,0.23426 -1.364258,0.23426 -0.74414,0 -1.391818,-0.26182 -0.647678,-0.26872 -1.129991,-0.81305 -0.475424,-0.54432 -0.751031,-1.37114 -0.268718,-0.83372 -0.268718,-1.9706 z m 3.500217,2.71474 q 0.282498,0 0.509874,-0.10336 0.234267,-0.11024 0.399631,-0.32384 0.172255,-0.22048 0.261828,-0.55121 0.09646,-0.33073 0.09646,-0.78548 0,-0.73725 -0.310058,-1.15755 -0.303169,-0.4272 -0.930176,-0.4272 -0.316949,0 -0.578776,0.12403 -0.261827,0.12402 -0.447862,0.32384 -0.186036,0.19981 -0.289388,0.44786 -0.09646,0.24804 -0.09646,0.50298 0,0.3514 0.08268,0.7028 0.08957,0.34451 0.261827,0.62701 0.179145,0.27561 0.434082,0.44786 0.261828,0.17226 0.606338,0.17226 z" />
          </g>
        </g>
      </g>
      <g
         id="g5976"
         style="fill:#444444;fill-opacity:1">
        <g
           id="g5907"
           style="fill:#444444;fill-opacity:1">
          <g
             style="fill:#444444;fill-opacity:1"
             transform="translate(2.031126,-52.727675)"
             id="g5803">
            <path
               inkscape:connector-curvature="0"
               id="path5772"
               style="font-style:normal;font-variant:normal;font-weight:bold;font-stretch:normal;font-size:14.11111069px;line-height:1.25;font-family:'Droid Sans';-inkscape-font-specification:'Droid Sans, Bold';font-variant-ligatures:normal;font-variant-caps:normal;font-variant-numeric:normal;font-feature-settings:normal;text-align:start;letter-spacing:0px;word-spacing:0px;writing-mode:lr-tb;text-anchor:start;fill:#444444;fill-opacity:1;stroke:none;stroke-width:0.26458332"
               d="m 87.092377,125.29618 h -2.129069 v -5.8291 q 0,-0.17914 0,-0.42719 0.0069,-0.25494 0.01378,-0.52365 0.01378,-0.27561 0.02067,-0.55122 0.01378,-0.27561 0.02067,-0.50298 -0.03445,0.0413 -0.117133,0.12402 -0.08268,0.0827 -0.186035,0.18603 -0.103353,0.0965 -0.213596,0.19982 -0.110243,0.10335 -0.213596,0.18604 l -1.157552,0.93017 -1.033529,-1.28157 3.24528,-2.58383 h 1.750108 z" />
            <path
               inkscape:connector-curvature="0"
               id="path5774"
               style="font-style:normal;font-variant:normal;font-weight:bold;font-stretch:normal;font-size:14.11111069px;line-height:1.25;font-family:'Droid Sans';-inkscape-font-specification:'Droid Sans, Bold';font-variant-ligatures:normal;font-variant-caps:normal;font-variant-numeric:normal;font-feature-settings:normal;text-align:start;letter-spacing:0px;word-spacing:0px;writing-mode:lr-tb;text-anchor:start;fill:#444444;fill-opacity:1;stroke:none;stroke-width:0.26458332"
               d="m 93.296902,125.28437 -5.755272,0.0118 v -1.48139 l 2.370221,-2.55626 c 0.29858,-0.32154 0.569597,-0.61782 0.81305,-0.88883 0.243453,-0.27101 0.452453,-0.53514 0.627,-0.79238 0.174553,-0.25723 0.31006,-0.51906 0.40652,-0.78548 0.09647,-0.26642 0.1447,-0.55351 0.1447,-0.86127 0,-0.33991 -0.103353,-0.60404 -0.31006,-0.79237 -0.202113,-0.18833 -0.475423,-0.2825 -0.81993,-0.2825 -0.362887,0 -0.71199,0.0896 -1.04731,0.26872 -0.335327,0.17914 -0.686728,0.43408 -1.054201,0.76481 l -1.15755,-1.37115 c 0.206707,-0.18833 0.422597,-0.36748 0.64767,-0.53743 0.22508,-0.17455 0.47313,-0.32844 0.74415,-0.46165 0.271014,-0.13321 0.569588,-0.23886 0.895721,-0.31695 0.326133,-0.0827 0.691313,-0.12402 1.09554,-0.12402 0.482313,0 0.9141,0.0666 1.29536,0.19982 0.385847,0.13321 0.714277,0.32383 0.98529,0.57188 0.271013,0.24345 0.47772,0.53973 0.62012,0.88884 0.146993,0.3491 0.22049,0.74184 0.22049,1.17822 0,0.39504 -0.0689,0.774 -0.20671,1.13688 -0.1378,0.35829 -0.32613,0.71199 -0.56499,1.06109 -0.23886,0.34451 -0.516767,0.68902 -0.83372,1.03353 -0.312353,0.33991 -0.647677,0.68672 -1.00597,1.04042 l -1.21267,1.21956 v 0.0965 l 3.078927,-0.0236 z"
               sodipodi:nodetypes="ccccsccscsccccccscccscccccccc" />
          </g>
          <path
             inkscape:connector-curvature="0"
             id="path5616-8"
             d="m 90.087891,59.251953 c -4.528529,0 -8.207032,3.678503 -8.207032,8.207031 0,4.528529 3.678503,8.208985 8.207032,8.208985 4.528528,0 8.208984,-3.680456 8.208984,-8.208985 0,-4.528528 -3.680456,-8.207031 -8.208984,-8.207031 z m 0,0.798828 c 4.096176,0 7.408203,3.312027 7.408203,7.408203 0,4.096177 -3.312027,7.408204 -7.408203,7.408204 -4.096177,0 -7.408204,-3.312027 -7.408203,-7.408204 0,-4.096176 3.312026,-7.408203 7.408203,-7.408203 z"
             style="color:#000000;font-style:normal;font-variant:normal;font-weight:normal;font-stretch:normal;font-size:medium;line-height:normal;font-family:sans-serif;font-variant-ligatures:normal;font-variant-position:normal;font-variant-caps:normal;font-variant-numeric:normal;font-variant-alternates:normal;font-feature-settings:normal;text-indent:0;text-align:start;text-decoration:none;text-decoration-line:none;text-decoration-style:solid;text-decoration-color:#000000;letter-spacing:normal;word-spacing:normal;text-transform:none;writing-mode:lr-tb;direction:ltr;text-orientation:mixed;dominant-baseline:auto;baseline-shift:baseline;text-anchor:start;white-space:normal;shape-padding:0;clip-rule:nonzero;display:inline;overflow:visible;visibility:visible;opacity:1;isolation:auto;mix-blend-mode:normal;color-interpolation:sRGB;color-interpolation-filters:linearRGB;solid-color:#000000;solid-opacity:1;vector-effect:none;fill:#444444;fill-opacity:1;fill-rule:nonzero;stroke:none;stroke-width:0.80000001;stroke-linecap:butt;stroke-linejoin:miter;stroke-miterlimit:4;stroke-dasharray:none;stroke-dashoffset:0;stroke-opacity:1;color-rendering:auto;image-rendering:auto;shape-rendering:auto;text-rendering:auto;enable-background:accumulate" />
        </g>
        <g
           id="g5901"
           style="fill:#444444;fill-opacity:1">
          <path
             inkscape:connector-curvature="0"
             id="path5616-4"
             d="m 73.517578,59.251953 c -4.528528,0 -8.207031,3.678503 -8.207031,8.207031 0,4.528529 3.678503,8.208985 8.207031,8.208985 4.528529,0 8.208984,-3.680456 8.208984,-8.208985 0,-4.528528 -3.680455,-8.207031 -8.208984,-8.207031 z m 0,0.798828 c 4.096176,0 7.408203,3.312027 7.408203,7.408203 0,4.096177 -3.312027,7.408204 -7.408203,7.408204 -4.096176,0 -7.408203,-3.312027 -7.408203,-7.408204 0,-4.096176 3.312027,-7.408203 7.408203,-7.408203 z"
             style="color:#000000;font-style:normal;font-variant:normal;font-weight:normal;font-stretch:normal;font-size:medium;line-height:normal;font-family:sans-serif;font-variant-ligatures:normal;font-variant-position:normal;font-variant-caps:normal;font-variant-numeric:normal;font-variant-alternates:normal;font-feature-settings:normal;text-indent:0;text-align:start;text-decoration:none;text-decoration-line:none;text-decoration-style:solid;text-decoration-color:#000000;letter-spacing:normal;word-spacing:normal;text-transform:none;writing-mode:lr-tb;direction:ltr;text-orientation:mixed;dominant-baseline:auto;baseline-shift:baseline;text-anchor:start;white-space:normal;shape-padding:0;clip-rule:nonzero;display:inline;overflow:visible;visibility:visible;opacity:1;isolation:auto;mix-blend-mode:normal;color-interpolation:sRGB;color-interpolation-filters:linearRGB;solid-color:#000000;solid-opacity:1;vector-effect:none;fill:#444444;fill-opacity:1;fill-rule:nonzero;stroke:none;stroke-width:0.80000001;stroke-linecap:butt;stroke-linejoin:miter;stroke-miterlimit:4;stroke-dasharray:none;stroke-dashoffset:0;stroke-opacity:1;color-rendering:auto;image-rendering:auto;shape-rendering:auto;text-rendering:auto;enable-background:accumulate" />
          <path
             d="m 76.935638,66.711912 q 0,0.72347 -0.08268,1.44694 -0.07579,0.71658 -0.282497,1.37115 -0.199816,0.65457 -0.551216,1.22645 -0.344509,0.565 -0.881944,0.97841 -0.530545,0.41341 -1.281576,0.65457 -0.74414,0.23427 -1.750108,0.23427 -0.144694,0 -0.316949,-0.007 -0.172255,-0.007 -0.3514,-0.0207 -0.172254,-0.007 -0.337619,-0.0276 -0.165364,-0.0138 -0.289388,-0.0413 v -1.70876 q 0.254937,0.0689 0.544325,0.11024 0.296278,0.0344 0.599447,0.0344 0.930176,0 1.529622,-0.22738 0.599447,-0.23426 0.950846,-0.64767 0.3514,-0.42031 0.496094,-0.99908 0.151584,-0.57878 0.186035,-1.27469 h -0.08957 q -0.137804,0.24805 -0.330729,0.46165 -0.192926,0.21359 -0.454753,0.37207 -0.261827,0.15847 -0.592556,0.24804 -0.330729,0.0896 -0.737251,0.0896 -0.654568,0 -1.178222,-0.2136 -0.523655,-0.2136 -0.888835,-0.62012 -0.35829,-0.40652 -0.551215,-0.99908 -0.192926,-0.59255 -0.192926,-1.35736 0,-0.81994 0.227377,-1.46761 0.234266,-0.64768 0.661458,-1.09554 0.427192,-0.45476 1.033529,-0.69591 0.613227,-0.24116 1.371148,-0.24116 0.74414,0 1.391818,0.26872 0.647678,0.26183 1.123101,0.80615 0.475423,0.54433 0.751031,1.37804 0.275608,0.83371 0.275608,1.9637 z m -3.500217,-2.70784 q -0.282498,0 -0.516764,0.10335 -0.234267,0.10335 -0.406522,0.32384 -0.165364,0.2136 -0.261827,0.55121 -0.08957,0.33073 -0.08957,0.78549 0,0.73036 0.310058,1.15755 0.310059,0.42719 0.937066,0.42719 0.316949,0 0.578776,-0.12402 0.261827,-0.12403 0.447862,-0.32384 0.186036,-0.19982 0.282498,-0.44786 0.103353,-0.24805 0.103353,-0.50299 0,-0.3514 -0.08957,-0.69591 -0.08268,-0.3514 -0.261828,-0.62701 -0.172254,-0.28249 -0.434082,-0.45475 -0.254937,-0.17225 -0.599446,-0.17225 z"
             style="font-style:normal;font-variant:normal;font-weight:bold;font-stretch:normal;font-size:14.11111069px;line-height:1.25;font-family:'Droid Sans';-inkscape-font-specification:'Droid Sans, Bold';font-variant-ligatures:normal;font-variant-caps:normal;font-variant-numeric:normal;font-feature-settings:normal;text-align:start;letter-spacing:0px;word-spacing:0px;writing-mode:lr-tb;text-anchor:start;fill:#444444;fill-opacity:1;stroke:none;stroke-width:0.26458332"
             id="path5783"
             inkscape:connector-curvature="0" />
        </g>
      </g>
      <path
         inkscape:connector-curvature="0"
         id="path5610-3"
         d="m 33.995128,56.978028 c -0.223398,-0.223398 -0.251964,-1.330979 -0.251964,-9.769414 0,-8.438439 0.02854,-9.546015 0.251964,-9.769417 0.225361,-0.225356 1.788269,-0.251964 14.799577,-0.251964 11.101016,0 14.593193,0.04559 14.740018,0.192409 0.277921,0.277922 0.277921,19.380024 0,19.657944 -0.146819,0.14682 -3.639002,0.19241 -14.740018,0.19241 -13.011308,0 -14.574216,-0.0266 -14.799577,-0.251968 z m 18.75387,-6.150958 c 0.714135,-0.312122 1.46461,-1.105304 1.615818,-1.707765 0.26331,-1.04911 -0.317973,-1.948828 -1.701285,-2.633271 -0.767986,-0.379991 -1.282738,-0.771009 -1.282738,-0.974411 0,-0.06822 0.113385,-0.237421 0.251967,-0.376001 0.28663,-0.286636 1.721686,-0.347117 2.371743,-0.09996 0.383041,0.145636 0.407134,0.117781 0.57496,-0.664765 0.09635,-0.449223 0.14934,-0.842595 0.11778,-0.874161 -0.03156,-0.03155 -0.465985,-0.13293 -0.965378,-0.225243 -2.357257,-0.43576 -4.435513,0.733802 -4.435513,2.496135 0,0.854209 0.355626,1.317216 1.468462,1.911869 0.471075,0.251724 0.982767,0.566592 1.137098,0.699705 0.370371,0.319464 0.356552,0.781763 -0.02955,0.988398 -0.45051,0.241105 -2.015954,0.203308 -2.656021,-0.06413 l -0.550733,-0.23011 -0.09948,0.59088 c -0.05472,0.324987 -0.134235,0.717509 -0.176712,0.872271 -0.08817,0.321281 0.07857,0.406575 1.171488,0.599233 1.011987,0.178392 2.37584,0.04635 3.188101,-0.308664 z m -9.189359,-3.342162 c 0.857372,-2.003911 1.60467,-3.769749 1.660663,-3.92408 0.0907,-0.25 -0.01911,-0.280596 -1.007139,-0.280596 H 43.10422 l -1.022273,2.643069 -1.022272,2.643071 -0.445652,-0.928528 c -0.408961,-0.852082 -2.434762,-3.074841 -2.627093,-2.882515 -0.0395,0.0395 0.339139,1.491523 0.841395,3.226735 l 0.913194,3.15493 1.129631,-0.0041 1.129631,-0.0041 z m 3.491918,3.486946 c 0,-0.161833 1.046901,-6.382862 1.220176,-7.250682 l 0.08804,-0.44094 h -1.051909 c -0.959954,0 -1.058996,0.03155 -1.132976,0.360769 -0.171817,0.764628 -1.207778,6.956927 -1.207778,7.219308 0,0.233643 0.162136,0.276685 1.042223,0.276685 0.608104,0 1.042223,-0.06879 1.042224,-0.16514 z m 9.642358,-0.396057 0.202932,-0.561195 h 1.403603 1.4036 l 0.105286,0.561195 0.105285,0.561197 h 0.99981 0.999809 L 61.374511,48.691777 C 61.07766,47.34691 60.685946,45.579136 60.504036,44.763398 l -0.330754,-1.483166 h -1.011295 c -0.728767,0 -1.104787,0.07839 -1.345932,0.280596 -0.279726,0.234561 -1.120918,2.02401 -3.241078,6.894714 l -0.29663,0.681452 h 1.106319 1.106318 z m 0.779879,-1.908514 c 0,-0.0355 0.245677,-0.700054 0.545952,-1.476744 l 0.545952,-1.412162 0.162411,0.634945 c 0.08933,0.349224 0.209804,0.887487 0.267728,1.196146 0.05793,0.30866 0.140864,0.68747 0.184323,0.841799 0.06845,0.243096 -0.0403,0.280598 -0.81368,0.280598 -0.490979,0 -0.892686,-0.02904 -0.892686,-0.06457 z M 40.248218,45.220507 c -0.205371,-0.911322 -0.472293,-1.719591 -0.593157,-1.796154 -0.120869,-0.07658 -1.049525,-0.135435 -2.063689,-0.130815 -1.47066,0.0067 -1.762788,0.04363 -1.443079,0.18246 0.220469,0.09573 0.792661,0.345348 1.271536,0.554697 1.10808,0.484419 2.107522,1.302934 2.684982,2.198911 0.249091,0.386485 0.467274,0.69036 0.484851,0.67528 0.01758,-0.01509 -0.136065,-0.773055 -0.341444,-1.684379 z"
         style="fill:#444444;fill-opacity:1;stroke-width:0.1603421" />
    </g>
  </g>
</svg>
