<?xml version="1.0" encoding="UTF-8" standalone="no"?>
<!-- Created with Inkscape (http://www.inkscape.org/) -->

<svg
   xmlns:dc="http://purl.org/dc/elements/1.1/"
   xmlns:cc="http://creativecommons.org/ns#"
   xmlns:rdf="http://www.w3.org/1999/02/22-rdf-syntax-ns#"
   xmlns:svg="http://www.w3.org/2000/svg"
   xmlns="http://www.w3.org/2000/svg"
   xmlns:sodipodi="http://sodipodi.sourceforge.net/DTD/sodipodi-0.dtd"
   xmlns:inkscape="http://www.inkscape.org/namespaces/inkscape"
   width="218.77644mm"
   height="71.846764mm"
   viewBox="0 0 218.77644 71.846763"
   version="1.1"
   id="svg8"
   inkscape:version="0.92.3 (unknown)"
   sodipodi:docname="video.svg">
  <defs
     id="defs2">
    <filter
       style="color-interpolation-filters:sRGB"
       inkscape:label="Drop Shadow"
       id="filter5002">
      <feFlood
         flood-opacity="0.552941"
         flood-color="rgb(0,0,0)"
         result="flood"
         id="feFlood4992" />
      <feComposite
         in="SourceGraphic"
         in2="flood"
         operator="in"
         result="composite1"
         id="feComposite4994" />
      <feGaussianBlur
         in="composite1"
         stdDeviation="3"
         result="blur"
         id="feGaussianBlur4996" />
      <feOffset
         dx="0"
         dy="0"
         result="offset"
         id="feOffset4998" />
      <feComposite
         in="SourceGraphic"
         in2="offset"
         operator="over"
         result="fbSourceGraphic"
         id="feComposite5000" />
      <feColorMatrix
         result="fbSourceGraphicAlpha"
         in="fbSourceGraphic"
         values="0 0 0 -1 0 0 0 0 -1 0 0 0 0 -1 0 0 0 0 1 0"
         id="feColorMatrix5388" />
      <feFlood
         id="feFlood5390"
         flood-opacity="0.54902"
         flood-color="rgb(0,0,0)"
         result="flood"
         in="fbSourceGraphic" />
      <feComposite
         in2="flood"
         id="feComposite5392"
         in="fbSourceGraphic"
         operator="in"
         result="composite1" />
      <feGaussianBlur
         id="feGaussianBlur5394"
         in="composite1"
         stdDeviation="3"
         result="blur" />
      <feOffset
         id="feOffset5396"
         dx="3"
         dy="3"
         result="offset" />
      <feComposite
         in2="offset"
         id="feComposite5398"
         in="fbSourceGraphic"
         operator="over"
         result="composite2" />
    </filter>
    <filter
       style="color-interpolation-filters:sRGB"
       inkscape:label="Drop Shadow"
       id="filter5386">
      <feFlood
         flood-opacity="0.54902"
         flood-color="rgb(0,0,0)"
         result="flood"
         id="feFlood5376" />
      <feComposite
         in="SourceGraphic"
         in2="flood"
         operator="in"
         result="composite1"
         id="feComposite5378" />
      <feGaussianBlur
         in="composite1"
         stdDeviation="3"
         result="blur"
         id="feGaussianBlur5380" />
      <feOffset
         dx="3"
         dy="3"
         result="offset"
         id="feOffset5382" />
      <feComposite
         in="SourceGraphic"
         in2="offset"
         operator="over"
         result="composite2"
         id="feComposite5384" />
    </filter>
    <filter
       style="color-interpolation-filters:sRGB"
       inkscape:label="Drop Shadow"
       id="filter5410">
      <feFlood
         flood-opacity="0.54902"
         flood-color="rgb(0,0,0)"
         result="flood"
         id="feFlood5400" />
      <feComposite
         in="SourceGraphic"
         in2="flood"
         operator="in"
         result="composite1"
         id="feComposite5402" />
      <feGaussianBlur
         in="composite1"
         stdDeviation="3"
         result="blur"
         id="feGaussianBlur5404" />
      <feOffset
         dx="3"
         dy="3"
         result="offset"
         id="feOffset5406" />
      <feComposite
         in="SourceGraphic"
         in2="offset"
         operator="over"
         result="composite2"
         id="feComposite5408" />
    </filter>
    <filter
       style="color-interpolation-filters:sRGB"
       inkscape:label="Drop Shadow"
       id="filter5422">
      <feFlood
         flood-opacity="0.54902"
         flood-color="rgb(0,0,0)"
         result="flood"
         id="feFlood5412" />
      <feComposite
         in="SourceGraphic"
         in2="flood"
         operator="in"
         result="composite1"
         id="feComposite5414" />
      <feGaussianBlur
         in="composite1"
         stdDeviation="3"
         result="blur"
         id="feGaussianBlur5416" />
      <feOffset
         dx="3"
         dy="3"
         result="offset"
         id="feOffset5418" />
      <feComposite
         in="SourceGraphic"
         in2="offset"
         operator="over"
         result="composite2"
         id="feComposite5420" />
    </filter>
    <filter
       style="color-interpolation-filters:sRGB"
       inkscape:label="Drop Shadow"
       id="filter4845">
      <feFlood
         flood-opacity="1"
         flood-color="rgb(255,255,255)"
         result="flood"
         id="feFlood4835" />
      <feComposite
         in="flood"
         in2="SourceGraphic"
         operator="in"
         result="composite1"
         id="feComposite4837" />
      <feGaussianBlur
         in="composite1"
         stdDeviation="3"
         result="blur"
         id="feGaussianBlur4839" />
      <feOffset
         dx="2"
         dy="2"
         result="offset"
         id="feOffset4841" />
      <feComposite
         in="SourceGraphic"
         in2="offset"
         operator="over"
         result="composite2"
         id="feComposite4843" />
    </filter>
    <filter
       style="color-interpolation-filters:sRGB"
       inkscape:label="Drop Shadow"
       id="filter4865">
      <feFlood
         flood-opacity="1"
         flood-color="rgb(0,0,0)"
         result="flood"
         id="feFlood4855" />
      <feComposite
         in="flood"
         in2="SourceGraphic"
         operator="in"
         result="composite1"
         id="feComposite4857" />
      <feGaussianBlur
         in="composite1"
         stdDeviation="3"
         result="blur"
         id="feGaussianBlur4859" />
      <feOffset
         dx="2"
         dy="2"
         result="offset"
         id="feOffset4861" />
      <feComposite
         in="SourceGraphic"
         in2="offset"
         operator="over"
         result="composite2"
         id="feComposite4863" />
    </filter>
    <filter
       style="color-interpolation-filters:sRGB"
       inkscape:label="Drop Shadow"
       id="filter4936">
      <feFlood
         flood-opacity="1"
         flood-color="rgb(0,0,0)"
         result="flood"
         id="feFlood4926" />
      <feComposite
         in="flood"
         in2="SourceGraphic"
         operator="in"
         result="composite1"
         id="feComposite4928" />
      <feGaussianBlur
         in="composite1"
         stdDeviation="3"
         result="blur"
         id="feGaussianBlur4930" />
      <feOffset
         dx="2"
         dy="2"
         result="offset"
         id="feOffset4932" />
      <feComposite
         in="SourceGraphic"
         in2="offset"
         operator="over"
         result="composite2"
         id="feComposite4934" />
    </filter>
  </defs>
  <sodipodi:namedview
     id="base"
     pagecolor="#ffffff"
     bordercolor="#666666"
     borderopacity="1.0"
     inkscape:pageopacity="0.0"
     inkscape:pageshadow="2"
     inkscape:zoom="1.4"
     inkscape:cx="441.99448"
     inkscape:cy="67.667802"
     inkscape:document-units="mm"
     inkscape:current-layer="layer1"
     showgrid="false"
     inkscape:window-width="1920"
     inkscape:window-height="1141"
     inkscape:window-x="0"
     inkscape:window-y="27"
     inkscape:window-maximized="1"
     inkscape:pagecheckerboard="true"
     fit-margin-top="0"
     fit-margin-left="0"
     fit-margin-right="0"
     fit-margin-bottom="0" />
  <metadata
     id="metadata5">
    <rdf:RDF>
      <cc:Work
         rdf:about="">
        <dc:format>image/svg+xml</dc:format>
        <dc:type
           rdf:resource="http://purl.org/dc/dcmitype/StillImage" />
        <dc:title></dc:title>
      </cc:Work>
    </rdf:RDF>
  </metadata>
  <g
     inkscape:label="Capa 1"
     inkscape:groupmode="layer"
     id="layer1"
     transform="translate(-1098.444,282.35081)">
    <flowRoot
       xml:space="preserve"
       id="flowRoot815"
       style="font-style:normal;font-weight:normal;font-size:40px;line-height:1.25;font-family:sans-serif;text-align:center;letter-spacing:0px;word-spacing:0px;text-anchor:middle;fill:#000000;fill-opacity:1;stroke:none"><flowRegion
         id="flowRegion817"><rect
           id="rect819"
           width="708.57141"
           height="345.71429"
           x="-1782.8572"
           y="-40.33746" /></flowRegion><flowPara
         id="flowPara821" /></flowRoot>    <text
       xml:space="preserve"
       style="font-style:normal;font-weight:normal;font-size:10.58333302px;line-height:1.25;font-family:sans-serif;text-align:center;letter-spacing:0px;word-spacing:0px;text-anchor:middle;fill:#000000;fill-opacity:1;stroke:none;stroke-width:0.26458332"
       x="1106.8744"
       y="194.08969"
       id="text825-7-1-8-6-4-1-4-8-7"><tspan
         sodipodi:role="line"
         x="1106.8744"
         y="203.45346"
         style="font-style:normal;font-variant:normal;font-weight:normal;font-stretch:normal;font-size:49.38888931px;line-height:0.75;font-family:SimSun-ExtB;-inkscape-font-specification:SimSun-ExtB;stroke-width:0.26458332"
         id="tspan827-8-58-8-2-9-6-9-2-3"
         rotate="0" /></text>
    <flowRoot
       xml:space="preserve"
       id="flowRoot970"
       style="font-style:normal;font-weight:normal;font-size:40px;line-height:1.25;font-family:sans-serif;text-align:center;letter-spacing:0px;word-spacing:0px;text-anchor:middle;fill:#000000;fill-opacity:1;stroke:none"><flowRegion
         id="flowRegion972"><rect
           id="rect974"
           width="32.324883"
           height="48.487324"
           x="8509.5254"
           y="1340.7126" /></flowRegion><flowPara
         id="flowPara976" /></flowRoot>    <g
       aria-label="una historia vende más  atrapalos con un video"
       style="font-style:normal;font-weight:normal;font-size:6.06628704px;line-height:1.25;font-family:sans-serif;text-align:center;letter-spacing:0px;word-spacing:0px;text-anchor:middle;fill:#ffffff;fill-opacity:1;stroke:none;stroke-width:0.26458332;filter:url(#filter4936)"
       id="text4853">
      <path
         d="m 1119.9177,-255.13157 q 0,0.35808 0.2528,0.71616 0.2738,0.33702 0.9478,0.33702 0.653,0 0.9268,-0.31596 0.2949,-0.31595 0.2949,-0.73722 v -19.79969 q 0,-0.44233 0.316,-0.73722 0.3159,-0.29489 0.7372,-0.29489 h 1.1585 q 0.2949,0 0.4002,0.10532 0.1053,0.10532 0.1053,0.4002 v 20.41053 q 0,0.61085 -0.2527,1.22169 -0.2317,0.61084 -0.7162,1.0953 -0.4845,0.4634 -1.2217,0.75829 -0.7161,0.29488 -1.7061,0.29488 -0.9479,0 -1.6851,-0.27382 -0.7372,-0.27383 -1.2428,-0.73722 -0.5055,-0.48446 -0.7793,-1.07424 -0.2528,-0.61084 -0.2528,-1.28488 v -20.41053 q 0,-0.29488 0.084,-0.4002 0.1053,-0.10532 0.4002,-0.10532 h 1.1585 q 0.4213,0 0.7372,0.29489 0.337,0.29489 0.337,0.73722 v 19.79969 z"
         style="font-style:normal;font-variant:normal;font-weight:normal;font-stretch:normal;font-size:40.44191742px;line-height:0.75;font-family:Cinematografica;-inkscape-font-specification:Cinematografica;fill:#ffffff;stroke-width:0.26458332"
         id="path4839"
         inkscape:connector-curvature="0" />
      <path
         d="m 1134.8465,-252.58289 q 0,0.27383 -0.1053,0.40021 -0.1054,0.10532 -0.4002,0.10532 h -1.1164 q -0.2949,0 -0.4845,-0.12638 -0.1895,-0.14745 -0.337,-0.35808 -0.1474,-0.2317 -0.2317,-0.52659 -0.084,-0.29489 -0.1474,-0.58978 l -2.7172,-13.79659 0.4844,14.32318 q 0.042,0.48446 -0.2948,0.77935 -0.3371,0.29489 -0.8005,0.29489 h -1.1163 q -0.2949,0 -0.4002,-0.10532 -0.1054,-0.12638 -0.1054,-0.40021 v -22.87496 q 0,-0.27382 0.084,-0.37914 0.084,-0.10532 0.4002,-0.10532 h 1.1796 q 0.4212,0 0.7161,0.4634 0.316,0.44233 0.4845,1.24275 l 2.675,13.62808 -0.4844,-14.28105 q -0.042,-0.4634 0.2949,-0.75829 0.337,-0.29489 0.7583,-0.29489 h 1.1795 q 0.316,0 0.4002,0.10532 0.084,0.10532 0.084,0.37914 z"
         style="font-style:normal;font-variant:normal;font-weight:normal;font-stretch:normal;font-size:40.44191742px;line-height:0.75;font-family:Cinematografica;-inkscape-font-specification:Cinematografica;fill:#ffffff;stroke-width:0.26458332"
         id="path4841"
         inkscape:connector-curvature="0" />
      <path
         d="m 1143.988,-252.56182 q 0.042,0.27382 -0.042,0.37914 -0.084,0.10532 -0.3791,0.10532 h -1.1585 q -0.4213,0 -0.7794,-0.27383 -0.3581,-0.27382 -0.3791,-0.73722 l -0.2107,-3.20165 h -1.9799 l -0.1896,3.20165 q -0.042,0.4634 -0.4002,0.73722 -0.337,0.27383 -0.7583,0.27383 h -1.1585 q -0.2949,0 -0.3791,-0.10532 -0.084,-0.10532 -0.063,-0.37914 l 2.0853,-22.79071 q 0.042,-0.31595 0.1685,-0.44233 0.1474,-0.14745 0.4634,-0.14745 h 2.4644 q 0.5898,0 0.653,0.58978 z m -4.8024,-5.81353 h 1.7272 l -0.8426,-13.77553 -0.021,0.0843 z"
         style="font-style:normal;font-variant:normal;font-weight:normal;font-stretch:normal;font-size:40.44191742px;line-height:0.75;font-family:Cinematografica;-inkscape-font-specification:Cinematografica;fill:#ffffff;stroke-width:0.26458332"
         id="path4843"
         inkscape:connector-curvature="0" />
      <path
         d="m 1157.911,-252.58289 q 0,0.29489 -0.1053,0.40021 -0.084,0.10532 -0.3792,0.10532 h -1.1584 q -0.4213,0 -0.7583,-0.27383 -0.316,-0.29489 -0.316,-0.73722 v -9.81559 h -2.338 v 9.79453 q 0,0.44233 -0.337,0.73722 -0.316,0.29489 -0.7373,0.29489 h -1.1585 q -0.2948,0 -0.4002,-0.10532 -0.084,-0.10532 -0.084,-0.40021 v -22.85389 q 0,-0.29489 0.084,-0.40021 0.1054,-0.10532 0.4002,-0.10532 h 1.1585 q 0.4845,0 0.7794,0.31596 0.2949,0.29489 0.2949,0.77935 v 9.68921 h 2.338 v -9.7524 q 0,-0.44234 0.316,-0.73723 0.337,-0.29489 0.7583,-0.29489 h 1.1584 q 0.2949,0 0.3792,0.10532 0.1053,0.10532 0.1053,0.40021 z"
         style="font-style:normal;font-variant:normal;font-weight:normal;font-stretch:normal;font-size:40.44191742px;line-height:0.75;font-family:Cinematografica;-inkscape-font-specification:Cinematografica;fill:#ffffff;stroke-width:0.26458332"
         id="path4845"
         inkscape:connector-curvature="0" />
      <path
         d="m 1162.6503,-252.6882 q 0,0.61084 -0.6108,0.61084 h -1.5166 q -0.5898,0 -0.5898,-0.61084 v -22.20093 q 0,-0.4634 0.316,-0.75829 0.337,-0.29489 0.7582,-0.29489 h 1.1585 q 0.316,0 0.4002,0.10532 0.084,0.0843 0.084,0.37914 z"
         style="font-style:normal;font-variant:normal;font-weight:normal;font-stretch:normal;font-size:40.44191742px;line-height:0.75;font-family:Cinematografica;-inkscape-font-specification:Cinematografica;fill:#ffffff;stroke-width:0.26458332"
         id="path4847"
         inkscape:connector-curvature="0" />
      <path
         d="m 1168.5902,-251.67716 q -0.9268,0 -1.664,-0.25276 -0.7162,-0.25276 -1.2217,-0.69509 -0.5055,-0.4634 -0.7793,-1.07424 -0.2528,-0.63191 -0.2528,-1.34807 v -5.09736 q 0,-0.40021 0.4634,-0.40021 h 1.2427 q 0.1475,0 0.316,0.0421 0.1896,0.0421 0.337,0.14744 0.1475,0.0843 0.2528,0.2317 0.1053,0.14745 0.1053,0.35808 v 4.63397 q 0,0.42127 0.2949,0.73722 0.2949,0.31596 0.9057,0.31596 0.6319,0 0.9268,-0.31596 0.2949,-0.31595 0.2949,-0.73722 0,-2.00103 -0.3792,-3.45441 -0.3791,-1.45338 -0.9689,-2.654 -0.5687,-1.22169 -1.2427,-2.33805 -0.653,-1.11637 -1.2428,-2.4223 -0.5687,-1.32701 -0.9478,-2.99102 -0.3792,-1.66402 -0.3792,-3.981 0,-0.71616 0.2739,-1.327 0.2738,-0.63191 0.7793,-1.07424 0.5055,-0.4634 1.2217,-0.71616 0.7372,-0.25276 1.6219,-0.25276 0.9057,0 1.6429,0.25276 0.7373,0.25276 1.2638,0.71616 0.5266,0.44233 0.8005,1.07424 0.2738,0.61084 0.2738,1.327 v 5.28694 q 0,0.4002 -0.4845,0.4002 h -1.2217 q -0.3159,0 -0.674,-0.18957 -0.337,-0.18957 -0.337,-0.61084 v -4.80248 q 0,-0.42127 -0.2949,-0.73722 -0.2949,-0.33702 -0.9268,-0.33702 -0.6319,0 -0.9268,0.33702 -0.2949,0.33701 -0.2949,0.73722 0,1.93784 0.3792,3.3491 0.3791,1.41125 0.9478,2.59081 0.5898,1.15849 1.2428,2.27486 0.674,1.0953 1.2427,2.4223 0.5898,1.327 0.9689,3.05421 0.3792,1.7272 0.3792,4.1495 0,0.71616 -0.2738,1.34807 -0.2739,0.61084 -0.7794,1.07424 -0.5055,0.44233 -1.2427,0.69509 -0.7373,0.25276 -1.643,0.25276 z"
         style="font-style:normal;font-variant:normal;font-weight:normal;font-stretch:normal;font-size:40.44191742px;line-height:0.75;font-family:Cinematografica;-inkscape-font-specification:Cinematografica;fill:#ffffff;stroke-width:0.26458332"
         id="path4849"
         inkscape:connector-curvature="0" />
      <path
         d="m 1179.1378,-252.66714 q 0,0.58978 -0.5898,0.58978 h -1.5587 q -0.316,0 -0.4424,-0.12638 -0.1263,-0.14745 -0.1263,-0.4634 v -20.93712 h -1.3481 q -1.2428,0 -1.2428,-1.39019 v -0.40021 q 0,-0.54765 0.4845,-0.54765 h 6.8246 q 0.4844,0 0.4844,0.54765 v 0.40021 q 0,0.6951 -0.337,1.05318 -0.3159,0.33701 -0.9057,0.33701 h -1.2427 z"
         style="font-style:normal;font-variant:normal;font-weight:normal;font-stretch:normal;font-size:40.44191742px;line-height:0.75;font-family:Cinematografica;-inkscape-font-specification:Cinematografica;fill:#ffffff;stroke-width:0.26458332"
         id="path4851"
         inkscape:connector-curvature="0" />
      <path
         d="m 1182.9608,-272.97235 q 0,-0.65297 0.2527,-1.26381 0.2528,-0.61084 0.7373,-1.07424 0.5055,-0.48446 1.2216,-0.75829 0.7373,-0.29489 1.7062,-0.29489 0.99,0 1.7272,0.29489 0.7372,0.27383 1.2217,0.75829 0.5055,0.4634 0.7372,1.07424 0.2528,0.61084 0.2528,1.26381 v 17.88291 q 0,0.61084 -0.2317,1.22168 -0.2317,0.58978 -0.7162,1.07424 -0.4845,0.48446 -1.2217,0.77935 -0.7372,0.31595 -1.7482,0.31595 -1.0111,0 -1.7483,-0.29489 -0.7372,-0.29489 -1.2428,-0.77935 -0.4844,-0.48446 -0.7161,-1.0953 -0.2317,-0.61084 -0.2317,-1.22168 z m 2.7172,17.81972 q 0,0.42127 0.2949,0.75828 0.2948,0.31596 0.9478,0.31596 0.6319,0 0.9057,-0.31596 0.2739,-0.33701 0.2739,-0.75828 v -17.73547 q 0,-0.42127 -0.2949,-0.73722 -0.2738,-0.33702 -0.9268,-0.33702 -0.6319,0 -0.9268,0.33702 -0.2738,0.31595 -0.2738,0.73722 z"
         style="font-style:normal;font-variant:normal;font-weight:normal;font-stretch:normal;font-size:40.44191742px;line-height:0.75;font-family:Cinematografica;-inkscape-font-specification:Cinematografica;fill:#ffffff;stroke-width:0.26458332"
         id="path4853"
         inkscape:connector-curvature="0" />
      <path
         d="m 1200.7278,-252.58289 q 0,0.29489 -0.1053,0.40021 -0.1053,0.10532 -0.4002,0.10532 h -1.1585 q -0.4212,0 -0.7372,-0.29489 -0.3159,-0.29489 -0.3159,-0.73722 v -7.75137 q 0,-0.42127 -0.2949,-0.73722 -0.2949,-0.31596 -0.9268,-0.31596 h -1.2007 v 8.80455 q 0,0.44233 -0.337,0.73722 -0.3159,0.29489 -0.7372,0.29489 h -1.1585 q -0.2949,0 -0.4002,-0.10532 -0.084,-0.10532 -0.084,-0.40021 v -22.87496 q 0,-0.29488 0.084,-0.4002 0.1053,-0.10532 0.4002,-0.10532 h 3.4755 q 1.011,0 1.7272,0.29489 0.7372,0.27382 1.2217,0.75829 0.4844,0.46339 0.7161,1.07423 0.2317,0.61085 0.2317,1.26381 v 6.84564 q 0,1.91678 -1.327,2.71719 1.327,0.61084 1.327,2.14848 z m -5.1395,-21.04243 v 9.37326 h 1.306 q 0.3159,0 0.5266,-0.12639 0.2317,-0.14744 0.3581,-0.35807 0.1263,-0.2317 0.1685,-0.48447 0.063,-0.27382 0.063,-0.54765 v -6.78244 q 0,-0.42127 -0.2949,-0.73723 -0.2949,-0.33701 -0.9268,-0.33701 z"
         style="font-style:normal;font-variant:normal;font-weight:normal;font-stretch:normal;font-size:40.44191742px;line-height:0.75;font-family:Cinematografica;-inkscape-font-specification:Cinematografica;fill:#ffffff;stroke-width:0.26458332"
         id="path4855"
         inkscape:connector-curvature="0" />
      <path
         d="m 1205.4619,-252.6882 q 0,0.61084 -0.6109,0.61084 h -1.5166 q -0.5897,0 -0.5897,-0.61084 v -22.20093 q 0,-0.4634 0.3159,-0.75829 0.337,-0.29489 0.7583,-0.29489 h 1.1585 q 0.316,0 0.4002,0.10532 0.084,0.0843 0.084,0.37914 z"
         style="font-style:normal;font-variant:normal;font-weight:normal;font-stretch:normal;font-size:40.44191742px;line-height:0.75;font-family:Cinematografica;-inkscape-font-specification:Cinematografica;fill:#ffffff;stroke-width:0.26458332"
         id="path4857"
         inkscape:connector-curvature="0" />
      <path
         d="m 1214.6034,-252.56182 q 0.042,0.27382 -0.042,0.37914 -0.084,0.10532 -0.3791,0.10532 h -1.1585 q -0.4213,0 -0.7794,-0.27383 -0.3581,-0.27382 -0.3791,-0.73722 l -0.2107,-3.20165 h -1.9799 l -0.1896,3.20165 q -0.042,0.4634 -0.4002,0.73722 -0.337,0.27383 -0.7583,0.27383 h -1.1585 q -0.2949,0 -0.3791,-0.10532 -0.084,-0.10532 -0.063,-0.37914 l 2.0853,-22.79071 q 0.042,-0.31595 0.1685,-0.44233 0.1474,-0.14745 0.4634,-0.14745 h 2.4644 q 0.5898,0 0.653,0.58978 z m -4.8025,-5.81353 h 1.7272 l -0.8425,-13.77553 -0.021,0.0843 z"
         style="font-style:normal;font-variant:normal;font-weight:normal;font-stretch:normal;font-size:40.44191742px;line-height:0.75;font-family:Cinematografica;-inkscape-font-specification:Cinematografica;fill:#ffffff;stroke-width:0.26458332"
         id="path4859"
         inkscape:connector-curvature="0" />
      <path
         d="m 1225.8303,-252.66714 q -0.063,0.58978 -0.653,0.58978 h -2.4644 q -0.6109,0 -0.6319,-0.58978 l -2.0853,-22.79071 q -0.021,-0.27382 0.063,-0.37914 0.084,-0.10532 0.3791,-0.10532 h 1.1585 q 0.4213,0 0.7794,0.27383 0.358,0.27382 0.4002,0.73722 l 1.1585,18.72545 1.1795,-18.72545 q 0.042,-0.4634 0.4002,-0.73722 0.3581,-0.27383 0.7794,-0.27383 h 1.1585 q 0.2948,0 0.3791,0.10532 0.084,0.10532 0.042,0.37914 z"
         style="font-style:normal;font-variant:normal;font-weight:normal;font-stretch:normal;font-size:40.44191742px;line-height:0.75;font-family:Cinematografica;-inkscape-font-specification:Cinematografica;fill:#ffffff;stroke-width:0.26458332"
         id="path4861"
         inkscape:connector-curvature="0" />
      <path
         d="m 1229.7955,-252.07736 q -0.3792,0 -0.4845,-0.10532 -0.1053,-0.10532 -0.1053,-0.40021 v -22.85389 q 0,-0.40021 0.1685,-0.44234 0.1896,-0.0632 0.8004,-0.0632 h 4.8446 q 0.4845,0 0.4845,0.54765 v 0.40021 q 0,0.6951 -0.337,1.05318 -0.316,0.33701 -0.9058,0.33701 h -2.338 v 8.59391 h 2.6961 q 0.4845,0 0.4845,0.54765 v 0.42127 q 0,0.82148 -0.5056,1.0953 -0.4844,0.27383 -1.1584,0.27383 h -1.5166 v 8.25689 h 2.338 q 1.2428,0 1.2428,1.39019 v 0.40021 q 0,0.54765 -0.4845,0.54765 z"
         style="font-style:normal;font-variant:normal;font-weight:normal;font-stretch:normal;font-size:40.44191742px;line-height:0.75;font-family:Cinematografica;-inkscape-font-specification:Cinematografica;fill:#ffffff;stroke-width:0.26458332"
         id="path4863"
         inkscape:connector-curvature="0" />
      <path
         d="m 1244.719,-252.58289 q 0,0.27383 -0.1054,0.40021 -0.1053,0.10532 -0.4002,0.10532 h -1.1163 q -0.2949,0 -0.4845,-0.12638 -0.1896,-0.14745 -0.337,-0.35808 -0.1475,-0.2317 -0.2317,-0.52659 -0.084,-0.29489 -0.1474,-0.58978 l -2.7172,-13.79659 0.4844,14.32318 q 0.042,0.48446 -0.2949,0.77935 -0.337,0.29489 -0.8004,0.29489 h -1.1163 q -0.2949,0 -0.4003,-0.10532 -0.1053,-0.12638 -0.1053,-0.40021 v -22.87496 q 0,-0.27382 0.084,-0.37914 0.084,-0.10532 0.4002,-0.10532 h 1.1795 q 0.4213,0 0.7162,0.4634 0.316,0.44233 0.4845,1.24275 l 2.675,13.62808 -0.4844,-14.28105 q -0.042,-0.4634 0.2949,-0.75829 0.337,-0.29489 0.7582,-0.29489 h 1.1796 q 0.316,0 0.4002,0.10532 0.084,0.10532 0.084,0.37914 z"
         style="font-style:normal;font-variant:normal;font-weight:normal;font-stretch:normal;font-size:40.44191742px;line-height:0.75;font-family:Cinematografica;-inkscape-font-specification:Cinematografica;fill:#ffffff;stroke-width:0.26458332"
         id="path4865"
         inkscape:connector-curvature="0" />
      <path
         d="m 1247.2255,-252.07736 q -0.2949,0 -0.4002,-0.10532 -0.084,-0.10532 -0.084,-0.40021 v -22.85389 q 0,-0.29489 0.084,-0.40021 0.1053,-0.10532 0.4002,-0.10532 h 3.4755 q 1.0321,0 1.7693,0.31596 0.7583,0.31595 1.2217,0.82147 0.4634,0.48446 0.674,1.0953 0.2317,0.58978 0.2317,1.17956 v 17.01931 q 0,0.80041 -0.2949,1.43232 -0.2738,0.6319 -0.7793,1.07423 -0.5055,0.44234 -1.2217,0.6951 -0.7161,0.2317 -1.6008,0.2317 z m 3.5387,-2.33805 q 0.5687,0 0.8425,-0.33702 0.2738,-0.33701 0.2738,-0.73722 v -17.04037 q 0,-0.42127 -0.2948,-0.73722 -0.2949,-0.33702 -0.9268,-0.33702 h -1.2007 v 19.18885 z"
         style="font-style:normal;font-variant:normal;font-weight:normal;font-stretch:normal;font-size:40.44191742px;line-height:0.75;font-family:Cinematografica;-inkscape-font-specification:Cinematografica;fill:#ffffff;stroke-width:0.26458332"
         id="path4867"
         inkscape:connector-curvature="0" />
      <path
         d="m 1257.2043,-252.07736 q -0.3791,0 -0.4844,-0.10532 -0.1053,-0.10532 -0.1053,-0.40021 v -22.85389 q 0,-0.40021 0.1685,-0.44234 0.1895,-0.0632 0.8004,-0.0632 h 4.8446 q 0.4845,0 0.4845,0.54765 v 0.40021 q 0,0.6951 -0.3371,1.05318 -0.3159,0.33701 -0.9057,0.33701 h -2.338 v 8.59391 h 2.6961 q 0.4844,0 0.4844,0.54765 v 0.42127 q 0,0.82148 -0.5055,1.0953 -0.4844,0.27383 -1.1585,0.27383 h -1.5165 v 8.25689 h 2.338 q 1.2428,0 1.2428,1.39019 v 0.40021 q 0,0.54765 -0.4845,0.54765 z"
         style="font-style:normal;font-variant:normal;font-weight:normal;font-stretch:normal;font-size:40.44191742px;line-height:0.75;font-family:Cinematografica;-inkscape-font-specification:Cinematografica;fill:#ffffff;stroke-width:0.26458332"
         id="path4869"
         inkscape:connector-curvature="0" />
      <path
         d="m 1271.5749,-269.43368 -0.1053,2.80144 0.4213,13.48064 q 0,0.48446 -0.316,0.77935 -0.3159,0.29489 -0.7793,0.29489 h -1.1164 q -0.2949,0 -0.4002,-0.10532 -0.1053,-0.12638 -0.1053,-0.40021 v -22.87496 q 0,-0.29488 0.084,-0.37914 0.084,-0.10532 0.4002,-0.10532 h 2.2749 q 0.4213,0 0.7583,0.27383 0.3581,0.27382 0.4002,0.73722 l 1.7693,18.09355 1.7694,-18.09355 q 0.042,-0.37914 0.2527,-0.56871 0.2107,-0.21064 0.5266,-0.29489 0.316,-0.10532 0.6951,-0.12638 0.3791,-0.0211 0.7372,-0.0211 h 1.2428 q 0.2949,0 0.3791,0.10532 0.084,0.0843 0.084,0.37914 v 22.87496 q 0,0.50553 -0.4845,0.50553 h -1.1164 q -0.4634,0 -0.7793,-0.29489 -0.316,-0.29489 -0.316,-0.77935 l 0.4213,-13.48064 -0.1264,-2.80144 -1.8325,16.76654 q -0.021,0.58978 -0.653,0.58978 h -1.6008 q -0.5898,0 -0.653,-0.58978 z"
         style="font-style:normal;font-variant:normal;font-weight:normal;font-stretch:normal;font-size:40.44191742px;line-height:0.75;font-family:Cinematografica;-inkscape-font-specification:Cinematografica;fill:#ffffff;stroke-width:0.26458332"
         id="path4871"
         inkscape:connector-curvature="0" />
      <path
         d="m 1289.8001,-252.56182 c 0.028,0.18255 0.014,0.30893 -0.042,0.37914 -0.056,0.0702 -0.1824,0.10532 -0.3792,0.10532 h -1.1584 c -0.2809,0 -0.5407,-0.0913 -0.7794,-0.27383 -0.2387,-0.18255 -0.3651,-0.42829 -0.3791,-0.73722 l -0.2107,-3.20165 h -1.9799 l -0.1896,3.20165 c -0.028,0.30893 -0.1614,0.55467 -0.4002,0.73722 -0.2247,0.18255 -0.4774,0.27383 -0.7583,0.27383 h -1.1585 c -0.1966,0 -0.323,-0.0351 -0.3791,-0.10532 -0.056,-0.0702 -0.077,-0.19659 -0.063,-0.37914 l 2.0853,-22.79071 c 0.028,-0.21063 0.084,-0.35808 0.1685,-0.44233 0.098,-0.0983 0.2527,-0.14745 0.4634,-0.14745 h 2.4644 c 0.3932,0 0.6109,0.19659 0.653,0.58978 z m -4.8025,-5.81353 h 1.7272 l -0.8425,-13.77553 -0.021,0.0843 z"
         style="font-style:normal;font-variant:normal;font-weight:normal;font-stretch:normal;font-size:40.44191742px;line-height:0.75;font-family:Cinematografica;-inkscape-font-specification:Cinematografica;fill:#ffffff;stroke-width:0.26458332"
         id="path4873"
         inkscape:connector-curvature="0"
         sodipodi:nodetypes="csssccccccssccccssccccccc" />
      <path
         d="m 1295.0502,-251.67716 q -0.9268,0 -1.664,-0.25276 -0.7162,-0.25276 -1.2217,-0.69509 -0.5055,-0.4634 -0.7794,-1.07424 -0.2527,-0.63191 -0.2527,-1.34807 v -5.09736 q 0,-0.40021 0.4634,-0.40021 h 1.2427 q 0.1475,0 0.316,0.0421 0.1895,0.0421 0.337,0.14744 0.1474,0.0843 0.2527,0.2317 0.1054,0.14745 0.1054,0.35808 v 4.63397 q 0,0.42127 0.2949,0.73722 0.2948,0.31596 0.9057,0.31596 0.6319,0 0.9268,-0.31596 0.2949,-0.31595 0.2949,-0.73722 0,-2.00103 -0.3792,-3.45441 -0.3791,-1.45338 -0.9689,-2.654 -0.5687,-1.22169 -1.2427,-2.33805 -0.653,-1.11637 -1.2428,-2.4223 -0.5687,-1.32701 -0.9478,-2.99102 -0.3792,-1.66402 -0.3792,-3.981 0,-0.71616 0.2738,-1.327 0.2739,-0.63191 0.7794,-1.07424 0.5055,-0.4634 1.2217,-0.71616 0.7372,-0.25276 1.6219,-0.25276 0.9057,0 1.6429,0.25276 0.7372,0.25276 1.2638,0.71616 0.5266,0.44233 0.8004,1.07424 0.2739,0.61084 0.2739,1.327 v 5.28694 q 0,0.4002 -0.4845,0.4002 h -1.2217 q -0.3159,0 -0.674,-0.18957 -0.337,-0.18957 -0.337,-0.61084 v -4.80248 q 0,-0.42127 -0.2949,-0.73722 -0.2949,-0.33702 -0.9268,-0.33702 -0.6319,0 -0.9268,0.33702 -0.2949,0.33701 -0.2949,0.73722 0,1.93784 0.3791,3.3491 0.3792,1.41125 0.9479,2.59081 0.5898,1.15849 1.2427,2.27486 0.6741,1.0953 1.2428,2.4223 0.5898,1.327 0.9689,3.05421 0.3792,1.7272 0.3792,4.1495 0,0.71616 -0.2739,1.34807 -0.2738,0.61084 -0.7793,1.07424 -0.5055,0.44233 -1.2428,0.69509 -0.7372,0.25276 -1.6429,0.25276 z"
         style="font-style:normal;font-variant:normal;font-weight:normal;font-stretch:normal;font-size:40.44191742px;line-height:0.75;font-family:Cinematografica;-inkscape-font-specification:Cinematografica;fill:#ffffff;stroke-width:0.26458332"
         id="path4875"
         inkscape:connector-curvature="0" />
      <path
         d="m 1124.557,-217.37597 q 0.042,0.27382 -0.042,0.37914 -0.084,0.10532 -0.3791,0.10532 h -1.1585 q -0.4213,0 -0.7794,-0.27383 -0.358,-0.27383 -0.3791,-0.73722 l -0.2106,-3.20165 h -1.98 l -0.1896,3.20165 q -0.042,0.46339 -0.4002,0.73722 -0.337,0.27383 -0.7583,0.27383 h -1.1585 q -0.2948,0 -0.3791,-0.10532 -0.084,-0.10532 -0.063,-0.37914 l 2.0853,-22.79071 q 0.042,-0.31595 0.1685,-0.44233 0.1475,-0.14745 0.4634,-0.14745 h 2.4644 q 0.5898,0 0.653,0.58978 z m -4.8025,-5.81353 h 1.7272 l -0.8426,-13.77553 -0.021,0.0843 z"
         style="font-style:normal;font-variant:normal;font-weight:normal;font-stretch:normal;font-size:40.44191742px;line-height:0.75;font-family:Cinematografica;-inkscape-font-specification:Cinematografica;fill:#ffffff;stroke-width:0.26458332"
         id="path4877"
         inkscape:connector-curvature="0" />
      <path
         d="m 1129.0593,-217.48129 q 0,0.58978 -0.5898,0.58978 h -1.5587 q -0.3159,0 -0.4423,-0.12639 -0.1264,-0.14744 -0.1264,-0.46339 v -20.93712 h -1.3481 q -1.2427,0 -1.2427,-1.39019 v -0.40021 q 0,-0.54765 0.4844,-0.54765 h 6.8246 q 0.4845,0 0.4845,0.54765 v 0.40021 q 0,0.69509 -0.337,1.05317 -0.316,0.33702 -0.9058,0.33702 h -1.2427 z"
         style="font-style:normal;font-variant:normal;font-weight:normal;font-stretch:normal;font-size:40.44191742px;line-height:0.75;font-family:Cinematografica;-inkscape-font-specification:Cinematografica;fill:#ffffff;stroke-width:0.26458332"
         id="path4879"
         inkscape:connector-curvature="0" />
      <path
         d="m 1140.6969,-217.39704 q 0,0.29489 -0.1054,0.40021 -0.1053,0.10532 -0.4002,0.10532 h -1.1585 q -0.4212,0 -0.7372,-0.29489 -0.3159,-0.29489 -0.3159,-0.73723 v -7.75136 q 0,-0.42127 -0.2949,-0.73723 -0.2949,-0.31595 -0.9268,-0.31595 h -1.2006 v 8.80454 q 0,0.44234 -0.337,0.73723 -0.316,0.29489 -0.7373,0.29489 h -1.1585 q -0.2948,0 -0.4002,-0.10532 -0.084,-0.10532 -0.084,-0.40021 V -240.272 q 0,-0.29489 0.084,-0.4002 0.1054,-0.10532 0.4002,-0.10532 h 3.4755 q 1.0111,0 1.7272,0.29489 0.7372,0.27382 1.2217,0.75828 0.4845,0.4634 0.7162,1.07424 0.2317,0.61084 0.2317,1.26381 v 6.84564 q 0,1.91678 -1.327,2.71719 1.327,0.61084 1.327,2.14848 z m -5.1395,-21.04243 v 9.37325 h 1.3059 q 0.316,0 0.5266,-0.12638 0.2317,-0.14744 0.3581,-0.35808 0.1264,-0.2317 0.1685,-0.48446 0.063,-0.27382 0.063,-0.54765 v -6.78244 q 0,-0.42127 -0.2949,-0.73723 -0.2949,-0.33701 -0.9268,-0.33701 z"
         style="font-style:normal;font-variant:normal;font-weight:normal;font-stretch:normal;font-size:40.44191742px;line-height:0.75;font-family:Cinematografica;-inkscape-font-specification:Cinematografica;fill:#ffffff;stroke-width:0.26458332"
         id="path4881"
         inkscape:connector-curvature="0" />
      <path
         d="m 1149.8332,-217.37597 q 0.042,0.27382 -0.042,0.37914 -0.084,0.10532 -0.3791,0.10532 h -1.1585 q -0.4213,0 -0.7794,-0.27383 -0.358,-0.27383 -0.3791,-0.73722 l -0.2106,-3.20165 h -1.98 l -0.1896,3.20165 q -0.042,0.46339 -0.4002,0.73722 -0.337,0.27383 -0.7583,0.27383 h -1.1585 q -0.2948,0 -0.3791,-0.10532 -0.084,-0.10532 -0.063,-0.37914 l 2.0853,-22.79071 q 0.042,-0.31595 0.1685,-0.44233 0.1475,-0.14745 0.4634,-0.14745 h 2.4644 q 0.5898,0 0.653,0.58978 z m -4.8025,-5.81353 h 1.7272 l -0.8426,-13.77553 -0.021,0.0843 z"
         style="font-style:normal;font-variant:normal;font-weight:normal;font-stretch:normal;font-size:40.44191742px;line-height:0.75;font-family:Cinematografica;-inkscape-font-specification:Cinematografica;fill:#ffffff;stroke-width:0.26458332"
         id="path4883"
         inkscape:connector-curvature="0" />
      <path
         d="m 1151.6499,-216.89151 q -0.2949,0 -0.4002,-0.10532 -0.084,-0.10532 -0.084,-0.40021 v -22.85389 q 0,-0.29489 0.084,-0.40021 0.1053,-0.10532 0.4002,-0.10532 h 3.4755 q 0.9057,0 1.6219,0.27383 0.7161,0.25276 1.2216,0.71616 0.5056,0.44233 0.7794,1.07423 0.2738,0.61085 0.2738,1.32701 v 8.86773 q 0,0.71616 -0.2738,1.34806 -0.2738,0.61084 -0.8004,1.07424 -0.5266,0.44233 -1.2638,0.6951 -0.7373,0.25276 -1.643,0.25276 h -1.1585 v 7.20371 q 0,0.44234 -0.337,0.73723 -0.316,0.29489 -0.7372,0.29489 z m 2.2327,-21.5269 v 10.95302 h 1.306 q 0.5687,0 0.8425,-0.33702 0.2738,-0.33701 0.2738,-0.71616 v -8.8256 q 0,-0.42127 -0.2949,-0.73722 -0.2949,-0.33702 -0.9268,-0.33702 z"
         style="font-style:normal;font-variant:normal;font-weight:normal;font-stretch:normal;font-size:40.44191742px;line-height:0.75;font-family:Cinematografica;-inkscape-font-specification:Cinematografica;fill:#ffffff;stroke-width:0.26458332"
         id="path4885"
         inkscape:connector-curvature="0" />
      <path
         d="m 1167.6055,-217.37597 q 0.042,0.27382 -0.042,0.37914 -0.084,0.10532 -0.3792,0.10532 h -1.1585 q -0.4212,0 -0.7793,-0.27383 -0.3581,-0.27383 -0.3792,-0.73722 l -0.2106,-3.20165 h -1.98 l -0.1895,3.20165 q -0.042,0.46339 -0.4002,0.73722 -0.3371,0.27383 -0.7583,0.27383 h -1.1585 q -0.2949,0 -0.3792,-0.10532 -0.084,-0.10532 -0.063,-0.37914 l 2.0853,-22.79071 q 0.042,-0.31595 0.1685,-0.44233 0.1475,-0.14745 0.4634,-0.14745 h 2.4645 q 0.5897,0 0.6529,0.58978 z m -4.8025,-5.81353 h 1.7272 l -0.8425,-13.77553 -0.021,0.0843 z"
         style="font-style:normal;font-variant:normal;font-weight:normal;font-stretch:normal;font-size:40.44191742px;line-height:0.75;font-family:Cinematografica;-inkscape-font-specification:Cinematografica;fill:#ffffff;stroke-width:0.26458332"
         id="path4887"
         inkscape:connector-curvature="0" />
      <path
         d="m 1169.4222,-216.89151 q -0.2949,0 -0.4002,-0.10532 -0.084,-0.12638 -0.084,-0.42127 v -22.83283 q 0,-0.29489 0.084,-0.40021 0.1053,-0.10532 0.4002,-0.10532 h 1.1585 q 0.4845,0 0.7794,0.31595 0.2948,0.29489 0.2948,0.77935 v 20.4316 h 2.2749 q 1.2217,0 1.2217,1.39019 v 0.4002 q 0,0.54766 -0.4634,0.54766 z"
         style="font-style:normal;font-variant:normal;font-weight:normal;font-stretch:normal;font-size:40.44191742px;line-height:0.75;font-family:Cinematografica;-inkscape-font-specification:Cinematografica;fill:#ffffff;stroke-width:0.26458332"
         id="path4889"
         inkscape:connector-curvature="0" />
      <path
         d="m 1176.4048,-237.7865 q 0,-0.65297 0.2527,-1.26381 0.2528,-0.61085 0.7372,-1.07424 0.5056,-0.48446 1.2217,-0.75829 0.7373,-0.29489 1.7062,-0.29489 0.99,0 1.7272,0.29489 0.7372,0.27383 1.2217,0.75829 0.5055,0.46339 0.7372,1.07424 0.2527,0.61084 0.2527,1.26381 v 17.88291 q 0,0.61084 -0.2317,1.22168 -0.2317,0.58978 -0.7161,1.07424 -0.4845,0.48446 -1.2217,0.77935 -0.7372,0.31595 -1.7483,0.31595 -1.011,0 -1.7482,-0.29489 -0.7373,-0.29489 -1.2428,-0.77935 -0.4844,-0.48446 -0.7161,-1.0953 -0.2317,-0.61084 -0.2317,-1.22168 z m 2.7172,17.81971 q 0,0.42127 0.2948,0.75829 0.2949,0.31595 0.9479,0.31595 0.6319,0 0.9057,-0.31595 0.2739,-0.33702 0.2739,-0.75829 v -17.73546 q 0,-0.42127 -0.2949,-0.73722 -0.2739,-0.33702 -0.9268,-0.33702 -0.6319,0 -0.9268,0.33702 -0.2738,0.31595 -0.2738,0.73722 z"
         style="font-style:normal;font-variant:normal;font-weight:normal;font-stretch:normal;font-size:40.44191742px;line-height:0.75;font-family:Cinematografica;-inkscape-font-specification:Cinematografica;fill:#ffffff;stroke-width:0.26458332"
         id="path4891"
         inkscape:connector-curvature="0" />
      <path
         d="m 1190.2329,-216.49131 q -0.9267,0 -1.664,-0.25276 -0.7161,-0.25276 -1.2217,-0.6951 -0.5055,-0.46339 -0.7793,-1.07423 -0.2528,-0.63191 -0.2528,-1.34807 v -5.09736 q 0,-0.40021 0.4634,-0.40021 h 1.2428 q 0.1474,0 0.3159,0.0421 0.1896,0.0421 0.337,0.14744 0.1475,0.0842 0.2528,0.2317 0.1053,0.14744 0.1053,0.35808 v 4.63397 q 0,0.42127 0.2949,0.73722 0.2949,0.31595 0.9057,0.31595 0.632,0 0.9268,-0.31595 0.2949,-0.31595 0.2949,-0.73722 0,-2.00103 -0.3791,-3.45442 -0.3792,-1.45338 -0.9689,-2.654 -0.5687,-1.22168 -1.2428,-2.33804 -0.6529,-1.11637 -1.2427,-2.42231 -0.5687,-1.327 -0.9479,-2.99101 -0.3791,-1.66402 -0.3791,-3.981 0,-0.71616 0.2738,-1.32701 0.2738,-0.6319 0.7793,-1.07423 0.5056,-0.4634 1.2217,-0.71616 0.7373,-0.25276 1.6219,-0.25276 0.9058,0 1.643,0.25276 0.7372,0.25276 1.2638,0.71616 0.5266,0.44233 0.8004,1.07423 0.2738,0.61085 0.2738,1.32701 v 5.28693 q 0,0.40021 -0.4844,0.40021 h -1.2217 q -0.316,0 -0.6741,-0.18957 -0.337,-0.18957 -0.337,-0.61084 v -4.80248 q 0,-0.42127 -0.2949,-0.73722 -0.2948,-0.33702 -0.9268,-0.33702 -0.6319,0 -0.9267,0.33702 -0.2949,0.33701 -0.2949,0.73722 0,1.93784 0.3791,3.3491 0.3792,1.41125 0.9479,2.59081 0.5897,1.15849 1.2427,2.27485 0.674,1.09531 1.2428,2.42231 0.5897,1.327 0.9689,3.0542 0.3791,1.72721 0.3791,4.14951 0,0.71616 -0.2738,1.34807 -0.2738,0.61084 -0.7794,1.07423 -0.5055,0.44234 -1.2427,0.6951 -0.7372,0.25276 -1.643,0.25276 z"
         style="font-style:normal;font-variant:normal;font-weight:normal;font-stretch:normal;font-size:40.44191742px;line-height:0.75;font-family:Cinematografica;-inkscape-font-specification:Cinematografica;fill:#ffffff;stroke-width:0.26458332"
         id="path4893"
         inkscape:connector-curvature="0" />
      <path
         d="m 1205.009,-241.17773 q 0.9057,0 1.6219,0.27383 0.7161,0.25276 1.2217,0.71616 0.5055,0.46339 0.7793,1.07423 0.2738,0.61085 0.2738,1.30594 v 7.28797 q 0,0.42127 -0.4634,0.42127 h -1.2216 q -0.316,0 -0.6741,-0.18957 -0.337,-0.18957 -0.337,-0.61084 v -6.80351 q 0,-0.42127 -0.3159,-0.73722 -0.316,-0.33702 -0.9268,-0.33702 -0.6109,0 -0.9058,0.33702 -0.2948,0.31595 -0.2948,0.73722 v 17.75653 q 0,0.42127 0.2948,0.73722 0.2949,0.31595 0.9268,0.31595 0.6741,0 0.9268,-0.33701 0.2739,-0.35808 0.2739,-0.71616 v -6.59288 q 0,-0.21063 0.1053,-0.35808 0.1053,-0.1685 0.2527,-0.25276 0.1475,-0.10532 0.316,-0.14744 0.1896,-0.0421 0.337,-0.0421 h 1.2217 q 0.4844,0 0.4844,0.40021 v 7.07733 q 0,0.71616 -0.2738,1.34807 -0.2738,0.61084 -0.8004,1.07423 -0.5055,0.44234 -1.2427,0.6951 -0.7373,0.25276 -1.643,0.25276 -0.9057,0 -1.6219,-0.25276 -0.7161,-0.25276 -1.2217,-0.6951 -0.5055,-0.46339 -0.7793,-1.07423 -0.2738,-0.63191 -0.2738,-1.34807 v -17.9461 q 0,-0.71616 0.2738,-1.327 0.2738,-0.61084 0.7793,-1.05317 0.5266,-0.4634 1.2638,-0.71616 0.7373,-0.27383 1.643,-0.27383 z"
         style="font-style:normal;font-variant:normal;font-weight:normal;font-stretch:normal;font-size:40.44191742px;line-height:0.75;font-family:Cinematografica;-inkscape-font-specification:Cinematografica;fill:#ffffff;stroke-width:0.26458332"
         id="path4895"
         inkscape:connector-curvature="0" />
      <path
         d="m 1211.0016,-237.7865 q 0,-0.65297 0.2527,-1.26381 0.2528,-0.61085 0.7372,-1.07424 0.5056,-0.48446 1.2217,-0.75829 0.7372,-0.29489 1.7062,-0.29489 0.99,0 1.7272,0.29489 0.7372,0.27383 1.2217,0.75829 0.5055,0.46339 0.7372,1.07424 0.2527,0.61084 0.2527,1.26381 v 17.88291 q 0,0.61084 -0.2317,1.22168 -0.2317,0.58978 -0.7161,1.07424 -0.4845,0.48446 -1.2217,0.77935 -0.7372,0.31595 -1.7483,0.31595 -1.011,0 -1.7482,-0.29489 -0.7373,-0.29489 -1.2428,-0.77935 -0.4844,-0.48446 -0.7161,-1.0953 -0.2317,-0.61084 -0.2317,-1.22168 z m 2.7172,17.81971 q 0,0.42127 0.2948,0.75829 0.2949,0.31595 0.9479,0.31595 0.6319,0 0.9057,-0.31595 0.2739,-0.33702 0.2739,-0.75829 v -17.73546 q 0,-0.42127 -0.2949,-0.73722 -0.2739,-0.33702 -0.9268,-0.33702 -0.6319,0 -0.9268,0.33702 -0.2738,0.31595 -0.2738,0.73722 z"
         style="font-style:normal;font-variant:normal;font-weight:normal;font-stretch:normal;font-size:40.44191742px;line-height:0.75;font-family:Cinematografica;-inkscape-font-specification:Cinematografica;fill:#ffffff;stroke-width:0.26458332"
         id="path4897"
         inkscape:connector-curvature="0" />
      <path
         d="m 1228.6844,-217.39704 q 0,0.27383 -0.1053,0.40021 -0.1054,0.10532 -0.4003,0.10532 h -1.1163 q -0.2949,0 -0.4845,-0.12639 -0.1896,-0.14744 -0.337,-0.35807 -0.1474,-0.2317 -0.2317,-0.52659 -0.084,-0.29489 -0.1474,-0.58978 l -2.7172,-13.79659 0.4844,14.32318 q 0.042,0.48446 -0.2949,0.77935 -0.337,0.29489 -0.8004,0.29489 h -1.1163 q -0.2949,0 -0.4002,-0.10532 -0.1054,-0.12638 -0.1054,-0.40021 V -240.272 q 0,-0.27382 0.084,-0.37914 0.084,-0.10532 0.4002,-0.10532 h 1.1796 q 0.4212,0 0.7161,0.4634 0.316,0.44233 0.4845,1.24275 l 2.675,13.62808 -0.4844,-14.28105 q -0.042,-0.4634 0.2949,-0.75829 0.337,-0.29489 0.7583,-0.29489 h 1.1795 q 0.316,0 0.4002,0.10532 0.084,0.10532 0.084,0.37914 z"
         style="font-style:normal;font-variant:normal;font-weight:normal;font-stretch:normal;font-size:40.44191742px;line-height:0.75;font-family:Cinematografica;-inkscape-font-specification:Cinematografica;fill:#ffffff;stroke-width:0.26458332"
         id="path4899"
         inkscape:connector-curvature="0" />
      <path
         d="m 1238.2419,-219.94572 q 0,0.35808 0.2528,0.71616 0.2738,0.33701 0.9479,0.33701 0.6529,0 0.9267,-0.31595 0.2949,-0.31595 0.2949,-0.73722 v -19.79969 q 0,-0.44233 0.316,-0.73722 0.3159,-0.29489 0.7372,-0.29489 h 1.1585 q 0.2949,0 0.4002,0.10532 0.1053,0.10531 0.1053,0.4002 v 20.41053 q 0,0.61084 -0.2527,1.22169 -0.2317,0.61084 -0.7162,1.0953 -0.4845,0.46339 -1.2217,0.75828 -0.7161,0.29489 -1.7061,0.29489 -0.9479,0 -1.6851,-0.27382 -0.7372,-0.27383 -1.2427,-0.73723 -0.5056,-0.48446 -0.7794,-1.07423 -0.2528,-0.61085 -0.2528,-1.28488 V -240.272 q 0,-0.29489 0.084,-0.4002 0.1053,-0.10532 0.4002,-0.10532 h 1.1585 q 0.4213,0 0.7372,0.29489 0.337,0.29489 0.337,0.73722 v 19.79969 z"
         style="font-style:normal;font-variant:normal;font-weight:normal;font-stretch:normal;font-size:40.44191742px;line-height:0.75;font-family:Cinematografica;-inkscape-font-specification:Cinematografica;fill:#ffffff;stroke-width:0.26458332"
         id="path4901"
         inkscape:connector-curvature="0" />
      <path
         d="m 1253.1707,-217.39704 q 0,0.27383 -0.1053,0.40021 -0.1054,0.10532 -0.4002,0.10532 h -1.1164 q -0.2949,0 -0.4845,-0.12639 -0.1895,-0.14744 -0.337,-0.35807 -0.1474,-0.2317 -0.2317,-0.52659 -0.084,-0.29489 -0.1474,-0.58978 l -2.7172,-13.79659 0.4844,14.32318 q 0.042,0.48446 -0.2948,0.77935 -0.3371,0.29489 -0.8005,0.29489 h -1.1163 q -0.2949,0 -0.4002,-0.10532 -0.1053,-0.12638 -0.1053,-0.40021 V -240.272 q 0,-0.27382 0.084,-0.37914 0.084,-0.10532 0.4002,-0.10532 h 1.1796 q 0.4212,0 0.7161,0.4634 0.316,0.44233 0.4845,1.24275 l 2.6751,13.62808 -0.4845,-14.28105 q -0.042,-0.4634 0.2949,-0.75829 0.337,-0.29489 0.7583,-0.29489 h 1.1795 q 0.316,0 0.4002,0.10532 0.084,0.10532 0.084,0.37914 z"
         style="font-style:normal;font-variant:normal;font-weight:normal;font-stretch:normal;font-size:40.44191742px;line-height:0.75;font-family:Cinematografica;-inkscape-font-specification:Cinematografica;fill:#ffffff;stroke-width:0.26458332"
         id="path4903"
         inkscape:connector-curvature="0" />
      <path
         d="m 1265.0874,-217.48129 q -0.063,0.58978 -0.653,0.58978 h -2.4644 q -0.6109,0 -0.6319,-0.58978 l -2.0853,-22.79071 q -0.021,-0.27382 0.063,-0.37914 0.084,-0.10532 0.3791,-0.10532 h 1.1585 q 0.4213,0 0.7793,0.27383 0.3581,0.27382 0.4003,0.73722 l 1.1584,18.72545 1.1796,-18.72545 q 0.042,-0.4634 0.4002,-0.73722 0.3581,-0.27383 0.7794,-0.27383 h 1.1585 q 0.2948,0 0.3791,0.10532 0.084,0.10532 0.042,0.37914 z"
         style="font-style:normal;font-variant:normal;font-weight:normal;font-stretch:normal;font-size:40.44191742px;line-height:0.75;font-family:Cinematografica;-inkscape-font-specification:Cinematografica;fill:#ffffff;stroke-width:0.26458332"
         id="path4905"
         inkscape:connector-curvature="0" />
      <path
         d="m 1271.18,-217.50236 q 0,0.61085 -0.6109,0.61085 h -1.5165 q -0.5898,0 -0.5898,-0.61085 v -22.20092 q 0,-0.4634 0.3159,-0.75829 0.3371,-0.29489 0.7583,-0.29489 h 1.1585 q 0.316,0 0.4002,0.10532 0.084,0.0842 0.084,0.37914 z"
         style="font-style:normal;font-variant:normal;font-weight:normal;font-stretch:normal;font-size:40.44191742px;line-height:0.75;font-family:Cinematografica;-inkscape-font-specification:Cinematografica;fill:#ffffff;stroke-width:0.26458332"
         id="path4907"
         inkscape:connector-curvature="0" />
      <path
         d="m 1273.6865,-216.89151 q -0.2949,0 -0.4002,-0.10532 -0.084,-0.10532 -0.084,-0.40021 v -22.85389 q 0,-0.29489 0.084,-0.40021 0.1053,-0.10532 0.4002,-0.10532 h 3.4755 q 1.0321,0 1.7693,0.31595 0.7583,0.31596 1.2217,0.82148 0.4634,0.48446 0.6741,1.0953 0.2317,0.58978 0.2317,1.17956 v 17.01931 q 0,0.80041 -0.2949,1.43231 -0.2739,0.63191 -0.7794,1.07424 -0.5055,0.44234 -1.2217,0.6951 -0.7161,0.2317 -1.6008,0.2317 z m 3.5387,-2.33805 q 0.5687,0 0.8425,-0.33702 0.2739,-0.33701 0.2739,-0.73722 v -17.04037 q 0,-0.42127 -0.2949,-0.73722 -0.2949,-0.33702 -0.9268,-0.33702 h -1.2006 v 19.18885 z"
         style="font-style:normal;font-variant:normal;font-weight:normal;font-stretch:normal;font-size:40.44191742px;line-height:0.75;font-family:Cinematografica;-inkscape-font-specification:Cinematografica;fill:#ffffff;stroke-width:0.26458332"
         id="path4909"
         inkscape:connector-curvature="0" />
      <path
         d="m 1283.6654,-216.89151 q -0.3792,0 -0.4845,-0.10532 -0.1053,-0.10532 -0.1053,-0.40021 v -22.85389 q 0,-0.40021 0.1685,-0.44234 0.1896,-0.0632 0.8004,-0.0632 h 4.8446 q 0.4845,0 0.4845,0.54765 v 0.40021 q 0,0.69509 -0.337,1.05317 -0.316,0.33702 -0.9058,0.33702 h -2.338 v 8.59391 h 2.6961 q 0.4845,0 0.4845,0.54765 v 0.42127 q 0,0.82147 -0.5056,1.0953 -0.4844,0.27383 -1.1584,0.27383 h -1.5166 v 8.25689 h 2.338 q 1.2428,0 1.2428,1.39019 v 0.4002 q 0,0.54766 -0.4845,0.54766 z"
         style="font-style:normal;font-variant:normal;font-weight:normal;font-stretch:normal;font-size:40.44191742px;line-height:0.75;font-family:Cinematografica;-inkscape-font-specification:Cinematografica;fill:#ffffff;stroke-width:0.26458332"
         id="path4911"
         inkscape:connector-curvature="0" />
      <path
         d="m 1290.8585,-237.7865 q 0,-0.65297 0.2528,-1.26381 0.2528,-0.61085 0.7372,-1.07424 0.5056,-0.48446 1.2217,-0.75829 0.7372,-0.29489 1.7062,-0.29489 0.9899,0 1.7272,0.29489 0.7372,0.27383 1.2216,0.75829 0.5056,0.46339 0.7373,1.07424 0.2527,0.61084 0.2527,1.26381 v 17.88291 q 0,0.61084 -0.2317,1.22168 -0.2317,0.58978 -0.7161,1.07424 -0.4845,0.48446 -1.2217,0.77935 -0.7372,0.31595 -1.7483,0.31595 -1.011,0 -1.7482,-0.29489 -0.7373,-0.29489 -1.2428,-0.77935 -0.4845,-0.48446 -0.7162,-1.0953 -0.2317,-0.61084 -0.2317,-1.22168 z m 2.7172,17.81971 q 0,0.42127 0.2949,0.75829 0.2949,0.31595 0.9479,0.31595 0.6319,0 0.9057,-0.31595 0.2738,-0.33702 0.2738,-0.75829 v -17.73546 q 0,-0.42127 -0.2948,-0.73722 -0.2739,-0.33702 -0.9268,-0.33702 -0.6319,0 -0.9268,0.33702 -0.2739,0.31595 -0.2739,0.73722 z"
         style="font-style:normal;font-variant:normal;font-weight:normal;font-stretch:normal;font-size:40.44191742px;line-height:0.75;font-family:Cinematografica;-inkscape-font-specification:Cinematografica;fill:#ffffff;stroke-width:0.26458332"
         id="path4913"
         inkscape:connector-curvature="0" />
    </g>
  </g>
</svg>
