<?xml version="1.0" encoding="UTF-8" standalone="no"?>
<!-- Created with Inkscape (http://www.inkscape.org/) -->

<svg
   xmlns:dc="http://purl.org/dc/elements/1.1/"
   xmlns:cc="http://creativecommons.org/ns#"
   xmlns:rdf="http://www.w3.org/1999/02/22-rdf-syntax-ns#"
   xmlns:svg="http://www.w3.org/2000/svg"
   xmlns="http://www.w3.org/2000/svg"
   xmlns:sodipodi="http://sodipodi.sourceforge.net/DTD/sodipodi-0.dtd"
   xmlns:inkscape="http://www.inkscape.org/namespaces/inkscape"
   width="3.5mm"
   height="3.5mm"
   viewBox="0 0 3.5 3.5"
   version="1.1"
   id="svg6062"
   inkscape:version="0.92.2 (unknown)"
   sodipodi:docname="placeicon.svg">
  <defs
     id="defs6056" />
  <sodipodi:namedview
     id="base"
     pagecolor="#3cd656"
     bordercolor="#666666"
     borderopacity="1.0"
     inkscape:pageopacity="1"
     inkscape:pageshadow="2"
     inkscape:zoom="22.4"
     inkscape:cx="19.810593"
     inkscape:cy="-1.2779323"
     inkscape:document-units="mm"
     inkscape:current-layer="layer1"
     showgrid="false"
     inkscape:showpageshadow="false"
     inkscape:window-width="1920"
     inkscape:window-height="1141"
     inkscape:window-x="0"
     inkscape:window-y="27"
     inkscape:window-maximized="1" />
  <metadata
     id="metadata6059">
    <rdf:RDF>
      <cc:Work
         rdf:about="">
        <dc:format>image/svg+xml</dc:format>
        <dc:type
           rdf:resource="http://purl.org/dc/dcmitype/StillImage" />
        <dc:title></dc:title>
      </cc:Work>
    </rdf:RDF>
  </metadata>
  <g
     inkscape:label="Layer 1"
     inkscape:groupmode="layer"
     id="layer1"
     transform="translate(0,-293.5)">
    <g
       id="g6302-3-1"
       transform="matrix(0.00697491,0,0,0.00697491,0.25000027,293.75)"
       style="fill:#f9f9f9">
      <g
         id="g6246-8-0"
         style="fill:#f9f9f9">
        <path
           d="m 356.208,107.051 c -1.531,-5.738 -4.64,-11.852 -6.94,-17.205 C 321.746,23.704 261.611,0 213.055,0 148.054,0 76.463,43.586 66.905,133.427 v 18.355 c 0,0.766 0.264,7.647 0.639,11.089 5.358,42.816 39.143,88.32 64.375,131.136 27.146,45.873 55.314,90.999 83.221,136.106 17.208,-29.436 34.354,-59.259 51.17,-87.933 4.583,-8.415 9.903,-16.825 14.491,-24.857 3.058,-5.348 8.9,-10.696 11.569,-15.672 27.145,-49.699 70.838,-99.782 70.838,-149.104 v -20.262 c 10e-4,-5.347 -6.627,-24.081 -7,-25.234 z m -141.963,92.142 c -19.107,0 -40.021,-9.554 -50.344,-35.939 -1.538,-4.2 -1.414,-12.617 -1.414,-13.388 v -11.852 c 0,-33.636 28.56,-48.932 53.406,-48.932 30.588,0 54.245,24.472 54.245,55.06 0,30.587 -25.305,55.051 -55.893,55.051 z"
           id="Facebook_Places-0-85"
           inkscape:connector-curvature="0"
           style="fill:#f9f9f9" />
      </g>
      <g
         id="g6248-4-0"
         style="fill:#f9f9f9" />
      <g
         id="g6250-7-6"
         style="fill:#f9f9f9" />
      <g
         id="g6252-6-4"
         style="fill:#f9f9f9" />
      <g
         id="g6254-8-6"
         style="fill:#f9f9f9" />
      <g
         id="g6256-9-2"
         style="fill:#f9f9f9" />
      <g
         id="g6258-0-5"
         style="fill:#f9f9f9" />
      <g
         id="g6260-6-8"
         style="fill:#f9f9f9" />
      <g
         id="g6262-8-6"
         style="fill:#f9f9f9" />
      <g
         id="g6264-7-2"
         style="fill:#f9f9f9" />
      <g
         id="g6266-9-84"
         style="fill:#f9f9f9" />
      <g
         id="g6268-0-7"
         style="fill:#f9f9f9" />
      <g
         id="g6270-3-2"
         style="fill:#f9f9f9" />
      <g
         id="g6272-3-4"
         style="fill:#f9f9f9" />
      <g
         id="g6274-3-0"
         style="fill:#f9f9f9" />
      <g
         id="g6276-7-6"
         style="fill:#f9f9f9" />
    </g>
  </g>
</svg>
